# Original FleetScope procedural palm, metres, Z up
mtllib fronds.mtl
o fronds
usemtl surface
v 0.07171 0.00000 4.58612
v 0.41821 0.00000 4.73383
v 0.89671 -0.25166 4.67805
v 0.07171 0.00000 4.58612
v 0.41821 0.00000 4.73383
v 0.89671 0.25166 4.67805
v 0.30743 0.00000 4.69188
v 0.65393 0.00000 4.80658
v 1.13243 -0.37568 4.70524
v 0.30743 0.00000 4.69188
v 0.65393 0.00000 4.80658
v 1.13243 0.37568 4.70524
v 0.54314 0.00000 4.77519
v 0.88964 0.00000 4.85689
v 1.36814 -0.46697 4.70997
v 0.54314 0.00000 4.77519
v 0.88964 0.00000 4.85689
v 1.36814 0.46697 4.70997
v 0.77886 0.00000 4.83604
v 1.12536 0.00000 4.88475
v 1.60386 -0.53488 4.69226
v 0.77886 0.00000 4.83604
v 1.12536 0.00000 4.88475
v 1.60386 0.53488 4.69226
v 1.01457 0.00000 4.87445
v 1.36107 0.00000 4.89016
v 1.83957 -0.58239 4.65209
v 1.01457 0.00000 4.87445
v 1.36107 0.00000 4.89016
v 1.83957 0.58239 4.65209
v 1.25029 0.00000 4.89041
v 1.59679 0.00000 4.87311
v 2.07529 -0.61063 4.58948
v 1.25029 0.00000 4.89041
v 1.59679 0.00000 4.87311
v 2.07529 0.61063 4.58948
v 1.48600 0.00000 4.88392
v 1.83250 0.00000 4.83362
v 2.31100 -0.62000 4.50442
v 1.48600 0.00000 4.88392
v 1.83250 0.00000 4.83362
v 2.31100 0.62000 4.50442
v 1.72171 0.00000 4.85498
v 2.06821 0.00000 4.77169
v 2.54671 -0.61063 4.39691
v 1.72171 0.00000 4.85498
v 2.06821 0.00000 4.77169
v 2.54671 0.61063 4.39691
v 1.95743 0.00000 4.80359
v 2.30393 0.00000 4.68730
v 2.78243 -0.58239 4.26695
v 1.95743 0.00000 4.80359
v 2.30393 0.00000 4.68730
v 2.78243 0.58239 4.26695
v 2.19314 0.00000 4.72976
v 2.53964 0.00000 4.58046
v 3.01814 -0.53488 4.11454
v 2.19314 0.00000 4.72976
v 2.53964 0.00000 4.58046
v 3.01814 0.53488 4.11454
v 2.42886 0.00000 4.63347
v 2.77536 0.00000 4.45118
v 3.25386 -0.46697 3.93969
v 2.42886 0.00000 4.63347
v 2.77536 0.00000 4.45118
v 3.25386 0.46697 3.93969
v 2.66457 0.00000 4.51474
v 3.01107 0.00000 4.29944
v 3.48957 -0.37568 3.74238
v 2.66457 0.00000 4.51474
v 3.01107 0.00000 4.29944
v 3.48957 0.37568 3.74238
v 0.10000 0.03500 4.60000
v 0.10000 -0.03500 4.60000
v 0.37500 0.00000 4.71806
v 0.37500 0.03500 4.71806
v 0.37500 -0.03500 4.71806
v 0.65000 0.00000 4.80556
v 0.65000 0.03500 4.80556
v 0.65000 -0.03500 4.80556
v 0.92500 0.00000 4.86250
v 0.92500 0.03500 4.86250
v 0.92500 -0.03500 4.86250
v 1.20000 0.00000 4.88889
v 1.20000 0.03500 4.88889
v 1.20000 -0.03500 4.88889
v 1.47500 0.00000 4.88472
v 1.47500 0.03500 4.88472
v 1.47500 -0.03500 4.88472
v 1.75000 0.00000 4.85000
v 1.75000 0.03500 4.85000
v 1.75000 -0.03500 4.85000
v 2.02500 0.00000 4.78472
v 2.02500 0.03500 4.78472
v 2.02500 -0.03500 4.78472
v 2.30000 0.00000 4.68889
v 2.30000 0.03500 4.68889
v 2.30000 -0.03500 4.68889
v 2.57500 0.00000 4.56250
v 2.57500 0.03500 4.56250
v 2.57500 -0.03500 4.56250
v 2.85000 0.00000 4.40556
v 2.85000 0.03500 4.40556
v 2.85000 -0.03500 4.40556
v 3.12500 0.00000 4.21806
v 3.12500 0.03500 4.21806
v 3.12500 -0.03500 4.21806
v 3.40000 0.00000 4.00000
v 0.07462 -0.01631 4.58612
v 0.38555 0.18351 4.73383
v 0.95098 0.24774 4.67805
v 0.07462 -0.01631 4.58612
v 0.38555 0.18351 4.73383
v 0.67886 0.67116 4.67805
v 0.28613 0.11962 4.69188
v 0.59706 0.31944 4.80658
v 1.22954 0.27934 4.70524
v 0.28613 0.11962 4.69188
v 0.59706 0.31944 4.80658
v 0.82333 0.91142 4.70524
v 0.49765 0.25555 4.77519
v 0.80858 0.45537 4.85689
v 1.49041 0.33848 4.70997
v 0.49765 0.25555 4.77519
v 0.80858 0.45537 4.85689
v 0.98549 1.12416 4.70997
v 0.70916 0.39149 4.83604
v 1.02009 0.59131 4.88475
v 1.73865 0.41728 4.69226
v 0.70916 0.39149 4.83604
v 1.02009 0.59131 4.88475
v 1.16029 1.31722 4.69226
v 0.92068 0.52742 4.87445
v 1.23161 0.72724 4.89016
v 1.97585 0.51324 4.65209
v 0.92068 0.52742 4.87445
v 1.23161 0.72724 4.89016
v 1.34612 1.49312 4.65209
v 1.13219 0.66335 4.89041
v 1.44312 0.86317 4.87311
v 2.20263 0.62542 4.58948
v 1.13219 0.66335 4.89041
v 1.44312 0.86317 4.87311
v 1.54237 1.65281 4.58948
v 1.34371 0.79928 4.88392
v 1.65464 0.99910 4.83362
v 2.41921 0.75347 4.50442
v 1.34371 0.79928 4.88392
v 1.65464 0.99910 4.83362
v 1.74882 1.79662 4.50442
v 1.55522 0.93522 4.85498
v 1.86615 1.13504 4.77169
v 2.62566 0.89729 4.39691
v 1.55522 0.93522 4.85498
v 1.86615 1.13504 4.77169
v 1.96540 1.92467 4.39691
v 1.76674 1.07115 4.80359
v 2.07767 1.27097 4.68730
v 2.82191 1.05697 4.26695
v 1.76674 1.07115 4.80359
v 2.07767 1.27097 4.68730
v 2.19218 2.03685 4.26695
v 1.97825 1.20708 4.72976
v 2.28918 1.40690 4.58046
v 3.00774 1.23287 4.11454
v 1.97825 1.20708 4.72976
v 2.28918 1.40690 4.58046
v 2.42938 2.13282 4.11454
v 2.18977 1.34301 4.63347
v 2.50070 1.54283 4.45118
v 3.18254 1.42594 3.93969
v 2.18977 1.34301 4.63347
v 2.50070 1.54283 4.45118
v 2.67761 2.21162 3.93969
v 2.40129 1.47895 4.51474
v 2.71221 1.67877 4.29944
v 3.34470 1.63867 3.74238
v 2.40129 1.47895 4.51474
v 2.71221 1.67877 4.29944
v 2.93848 2.27075 3.74238
v 0.08108 0.02944 4.60000
v 0.11892 -0.02944 4.60000
v 0.34677 0.15859 4.71806
v 0.32785 0.18803 4.71806
v 0.36569 0.12914 4.71806
v 0.59354 0.31718 4.80556
v 0.57461 0.34662 4.80556
v 0.61246 0.28773 4.80556
v 0.84030 0.47576 4.86250
v 0.82138 0.50521 4.86250
v 0.85923 0.44632 4.86250
v 1.08707 0.63435 4.88889
v 1.06815 0.66380 4.88889
v 1.10599 0.60491 4.88889
v 1.33384 0.79294 4.88472
v 1.31492 0.82238 4.88472
v 1.35276 0.76350 4.88472
v 1.58061 0.95153 4.85000
v 1.56168 0.98097 4.85000
v 1.59953 0.92208 4.85000
v 1.82737 1.11012 4.78472
v 1.80845 1.13956 4.78472
v 1.84630 1.08067 4.78472
v 2.07414 1.26870 4.68889
v 2.05522 1.29815 4.68889
v 2.09306 1.23926 4.68889
v 2.32091 1.42729 4.56250
v 2.30199 1.45674 4.56250
v 2.33983 1.39785 4.56250
v 2.56768 1.58588 4.40556
v 2.54875 1.61532 4.40556
v 2.58660 1.55644 4.40556
v 2.81444 1.74447 4.21806
v 2.79552 1.77391 4.21806
v 2.83337 1.71502 4.21806
v 3.06121 1.90306 4.00000
v 0.08668 -0.02916 4.58612
v 0.24982 0.32805 4.73383
v 0.70401 0.71680 4.67805
v 0.08668 -0.02916 4.58612
v 0.24982 0.32805 4.73383
v 0.24618 0.92589 4.67805
v 0.19766 0.21384 4.69188
v 0.36079 0.57105 4.80658
v 0.92780 0.90829 4.70524
v 0.19766 0.21384 4.69188
v 0.36079 0.57105 4.80658
v 0.24434 1.22041 4.70524
v 0.30863 0.45684 4.77519
v 0.47177 0.81406 4.85689
v 1.12182 1.11336 4.70997
v 0.30863 0.45684 4.77519
v 0.47177 0.81406 4.85689
v 0.27228 1.50134 4.70997
v 0.41961 0.69984 4.83604
v 0.58274 1.05706 4.88475
v 1.29457 1.32815 4.69226
v 0.41961 0.69984 4.83604
v 0.58274 1.05706 4.88475
v 0.32147 1.77255 4.69226
v 0.53058 0.94285 4.87445
v 0.69372 1.30006 4.89016
v 1.44876 1.55142 4.65209
v 0.53058 0.94285 4.87445
v 0.69372 1.30006 4.89016
v 0.38923 2.03529 4.65209
v 0.64156 1.18585 4.89041
v 0.80469 1.54306 4.87311
v 1.58542 1.78269 4.58948
v 0.64156 1.18585 4.89041
v 0.80469 1.54306 4.87311
v 0.47453 2.29002 4.58948
v 0.75253 1.42885 4.88392
v 0.91567 1.78606 4.83362
v 1.70492 2.02180 4.50442
v 0.75253 1.42885 4.88392
v 0.91567 1.78606 4.83362
v 0.57698 2.53691 4.50442
v 0.86351 1.67185 4.85498
v 1.02664 2.02906 4.77169
v 1.80737 2.26869 4.39691
v 0.86351 1.67185 4.85498
v 1.02664 2.02906 4.77169
v 0.69648 2.77602 4.39691
v 0.97448 1.91485 4.80359
v 1.13762 2.27207 4.68730
v 1.89266 2.52342 4.26695
v 0.97448 1.91485 4.80359
v 1.13762 2.27207 4.68730
v 0.83313 3.00729 4.26695
v 1.08546 2.15786 4.72976
v 1.24859 2.51507 4.58046
v 1.96042 2.78616 4.11454
v 1.08546 2.15786 4.72976
v 1.24859 2.51507 4.58046
v 0.98732 3.23056 4.11454
v 1.19643 2.40086 4.63347
v 1.35957 2.75807 4.45118
v 2.00962 3.05738 3.93969
v 1.19643 2.40086 4.63347
v 1.35957 2.75807 4.45118
v 1.16008 3.44535 3.93969
v 1.30741 2.64386 4.51474
v 1.47054 3.00107 4.29944
v 2.03755 3.33830 3.74238
v 1.30741 2.64386 4.51474
v 1.47054 3.00107 4.29944
v 1.35409 3.65043 3.74238
v 0.06816 0.01454 4.60000
v 0.13184 -0.01454 4.60000
v 0.22947 0.28350 4.71806
v 0.19763 0.29804 4.71806
v 0.26131 0.26896 4.71806
v 0.35894 0.56700 4.80556
v 0.32710 0.58154 4.80556
v 0.39078 0.55246 4.80556
v 0.48841 0.85051 4.86250
v 0.45658 0.86505 4.86250
v 0.52025 0.83597 4.86250
v 0.61788 1.13401 4.88889
v 0.58605 1.14855 4.88889
v 0.64972 1.11947 4.88889
v 0.74736 1.41751 4.88472
v 0.71552 1.43205 4.88472
v 0.77919 1.40297 4.88472
v 0.87683 1.70101 4.85000
v 0.84499 1.71555 4.85000
v 0.90866 1.68647 4.85000
v 1.00630 1.98451 4.78472
v 0.97446 1.99905 4.78472
v 1.03813 1.96997 4.78472
v 1.13577 2.26802 4.68889
v 1.10393 2.28256 4.68889
v 1.16761 2.25348 4.68889
v 1.26524 2.55152 4.56250
v 1.23340 2.56606 4.56250
v 1.29708 2.53698 4.56250
v 1.39471 2.83502 4.40556
v 1.36287 2.84956 4.40556
v 1.42655 2.82048 4.40556
v 1.52418 3.11852 4.21806
v 1.49234 3.13306 4.21806
v 1.55602 3.10398 4.21806
v 1.65365 3.40202 4.00000
v 0.10403 -0.02800 4.58612
v 0.05471 0.31498 4.73383
v 0.23571 0.82442 4.67805
v 0.10403 -0.02800 4.58612
v 0.05471 0.31498 4.73383
v -0.26248 0.75279 4.67805
v 0.07048 0.20532 4.69188
v 0.02117 0.54829 4.80658
v 0.32492 1.07538 4.70524
v 0.07048 0.20532 4.69188
v 0.02117 0.54829 4.80658
v -0.41878 0.96846 4.70524
v 0.03693 0.43863 4.77519
v -0.01238 0.78161 4.85689
v 0.38174 1.32169 4.70997
v 0.03693 0.43863 4.77519
v -0.01238 0.78161 4.85689
v -0.54269 1.18878 4.70997
v 0.00339 0.67195 4.83604
v -0.04592 1.01492 4.88475
v 0.41542 1.56467 4.69226
v 0.00339 0.67195 4.83604
v -0.04592 1.01492 4.88475
v -0.64346 1.41243 4.69226
v -0.03016 0.90526 4.87445
v -0.07947 1.24824 4.89016
v 0.42890 1.80475 4.65209
v -0.03016 0.90526 4.87445
v -0.07947 1.24824 4.89016
v -0.72403 1.63898 4.65209
v -0.06370 1.13858 4.89041
v -0.11301 1.48155 4.87311
v 0.42330 2.04208 4.58948
v -0.06370 1.13858 4.89041
v -0.11301 1.48155 4.87311
v -0.78552 1.86828 4.58948
v -0.09725 1.37189 4.88392
v -0.14656 1.71487 4.83362
v 0.39903 2.27673 4.50442
v -0.09725 1.37189 4.88392
v -0.14656 1.71487 4.83362
v -0.82835 2.10026 4.50442
v -0.13079 1.60521 4.85498
v -0.18011 1.94818 4.77169
v 0.35621 2.50871 4.39691
v -0.13079 1.60521 4.85498
v -0.18011 1.94818 4.77169
v -0.85261 2.33491 4.39691
v -0.16434 1.83852 4.80359
v -0.21365 2.18150 4.68730
v 0.29472 2.73801 4.26695
v -0.16434 1.83852 4.80359
v -0.21365 2.18150 4.68730
v -0.85822 2.57224 4.26695
v -0.19789 2.07184 4.72976
v -0.24720 2.41481 4.58046
v 0.21414 2.96456 4.11454
v -0.19789 2.07184 4.72976
v -0.24720 2.41481 4.58046
v -0.84473 2.81232 4.11454
v -0.23143 2.30515 4.63347
v -0.28074 2.64813 4.45118
v 0.11338 3.18821 3.93969
v -0.23143 2.30515 4.63347
v -0.28074 2.64813 4.45118
v -0.81106 3.05530 3.93969
v -0.26498 2.53847 4.51474
v -0.31429 2.88144 4.29944
v -0.01053 3.40854 3.74238
v -0.26498 2.53847 4.51474
v -0.31429 2.88144 4.29944
v -0.75424 3.30161 3.74238
v 0.06536 -0.00498 4.60000
v 0.13464 0.00498 4.60000
v 0.06086 0.27220 4.71806
v 0.02622 0.26722 4.71806
v 0.09551 0.27718 4.71806
v 0.02173 0.54440 4.80556
v -0.01292 0.53942 4.80556
v 0.05637 0.54938 4.80556
v -0.01741 0.81660 4.86250
v -0.05205 0.81162 4.86250
v 0.01723 0.82158 4.86250
v -0.05655 1.08880 4.88889
v -0.09119 1.08382 4.88889
v -0.02190 1.09378 4.88889
v -0.09568 1.36100 4.88472
v -0.13033 1.35602 4.88472
v -0.06104 1.36599 4.88472
v -0.13482 1.63321 4.85000
v -0.16946 1.62822 4.85000
v -0.10018 1.63819 4.85000
v -0.17396 1.90541 4.78472
v -0.20860 1.90043 4.78472
v -0.13931 1.91039 4.78472
v -0.21309 2.17761 4.68889
v -0.24774 2.17263 4.68889
v -0.17845 2.18259 4.68889
v -0.25223 2.44981 4.56250
v -0.28687 2.44483 4.56250
v -0.21759 2.45479 4.56250
v -0.29137 2.72201 4.40556
v -0.32601 2.71703 4.40556
v -0.25672 2.72699 4.40556
v -0.33050 2.99421 4.21806
v -0.36515 2.98923 4.21806
v -0.29586 2.99919 4.21806
v -0.36964 3.26641 4.00000
v 0.11976 -0.02280 4.58612
v -0.12228 0.25652 4.73383
v -0.26633 0.80706 4.67805
v 0.11976 -0.02280 4.58612
v -0.12228 0.25652 4.73383
v -0.64671 0.47746 4.67805
v -0.04489 0.16721 4.69188
v -0.28693 0.44654 4.80658
v -0.33725 1.07829 4.70524
v -0.04489 0.16721 4.69188
v -0.28693 0.44654 4.80658
v -0.90509 0.58626 4.70524
v -0.20954 0.35723 4.77519
v -0.45158 0.63656 4.85689
v -0.43291 1.32809 4.70997
v -0.20954 0.35723 4.77519
v -0.45158 0.63656 4.85689
v -1.13873 0.71649 4.70997
v -0.37419 0.54725 4.83604
v -0.61623 0.82657 4.88475
v -0.54623 1.56258 4.69226
v -0.37419 0.54725 4.83604
v -0.61623 0.82657 4.88475
v -1.35471 0.86203 4.69226
v -0.53884 0.73727 4.87445
v -0.78088 1.01659 4.89016
v -0.67498 1.78371 4.65209
v -0.53884 0.73727 4.87445
v -0.78088 1.01659 4.89016
v -1.55527 1.02094 4.65209
v -0.70350 0.92728 4.89041
v -0.94553 1.20661 4.87311
v -0.81829 1.99222 4.58948
v -0.70350 0.92728 4.89041
v -0.94553 1.20661 4.87311
v -1.74125 1.19247 4.58948
v -0.86815 1.11730 4.88392
v -1.11018 1.39663 4.83362
v -0.97586 2.18837 4.50442
v -0.86815 1.11730 4.88392
v -1.11018 1.39663 4.83362
v -1.91299 1.37635 4.50442
v -1.03280 1.30732 4.85498
v -1.27483 1.58664 4.77169
v -1.14759 2.37225 4.39691
v -1.03280 1.30732 4.85498
v -1.27483 1.58664 4.77169
v -2.07055 1.57250 4.39691
v -1.19745 1.49733 4.80359
v -1.43948 1.77666 4.68730
v -1.33358 2.54378 4.26695
v -1.19745 1.49733 4.80359
v -1.43948 1.77666 4.68730
v -2.21387 1.78101 4.26695
v -1.36210 1.68735 4.72976
v -1.60413 1.96668 4.58046
v -1.53414 2.70269 4.11454
v -1.36210 1.68735 4.72976
v -1.60413 1.96668 4.58046
v -2.34261 2.00214 4.11454
v -1.52675 1.87737 4.63347
v -1.76879 2.15669 4.45118
v -1.75011 2.84823 3.93969
v -1.52675 1.87737 4.63347
v -1.76879 2.15669 4.45118
v -2.45594 2.23663 3.93969
v -1.69140 2.06739 4.51474
v -1.93344 2.34671 4.29944
v -1.98376 2.97846 3.74238
v -1.69140 2.06739 4.51474
v -1.93344 2.34671 4.29944
v -2.55160 2.48643 3.74238
v 0.07355 -0.02292 4.60000
v 0.12645 0.02292 4.60000
v -0.09209 0.22169 4.71806
v -0.11854 0.19877 4.71806
v -0.06564 0.24461 4.71806
v -0.28418 0.44337 4.80556
v -0.31064 0.42045 4.80556
v -0.25773 0.46629 4.80556
v -0.47628 0.66506 4.86250
v -0.50273 0.64214 4.86250
v -0.44983 0.68798 4.86250
v -0.66837 0.88675 4.88889
v -0.69482 0.86383 4.88889
v -0.64192 0.90967 4.88889
v -0.86046 1.10843 4.88472
v -0.88691 1.08551 4.88472
v -0.83401 1.13135 4.88472
v -1.05255 1.33012 4.85000
v -1.07901 1.30720 4.85000
v -1.02610 1.35304 4.85000
v -1.24465 1.55181 4.78472
v -1.27110 1.52889 4.78472
v -1.21820 1.57473 4.78472
v -1.43674 1.77349 4.68889
v -1.46319 1.75057 4.68889
v -1.41029 1.79641 4.68889
v -1.62883 1.99518 4.56250
v -1.65528 1.97226 4.56250
v -1.60238 2.01810 4.56250
v -1.82092 2.21687 4.40556
v -1.84738 2.19395 4.40556
v -1.79447 2.23979 4.40556
v -2.01302 2.43855 4.21806
v -2.03947 2.41563 4.21806
v -1.98657 2.46147 4.21806
v -2.20511 2.66024 4.00000
v 0.13076 -0.00903 4.58612
v -0.24603 0.10160 4.73383
v -0.69547 0.49585 4.67805
v 0.13076 -0.00903 4.58612
v -0.24603 0.10160 4.73383
v -0.83727 0.01292 4.67805
v -0.12556 0.06623 4.69188
v -0.50236 0.17687 4.80658
v -0.91685 0.69011 4.70524
v -0.12556 0.06623 4.69188
v -0.50236 0.17687 4.80658
v -1.12853 -0.03081 4.70524
v -0.38188 0.14149 4.77519
v -0.75868 0.25213 4.85689
v -1.14745 0.85297 4.70997
v -0.38188 0.14149 4.77519
v -0.75868 0.25213 4.85689
v -1.41057 -0.04314 4.70997
v -0.63821 0.21676 4.83604
v -1.01500 0.32739 4.88475
v -1.38464 0.99339 4.69226
v -0.63821 0.21676 4.83604
v -1.01500 0.32739 4.88475
v -1.68603 -0.03304 4.69226
v -0.89453 0.29202 4.87445
v -1.27132 0.40266 4.89016
v -1.62757 1.11424 4.65209
v -0.89453 0.29202 4.87445
v -1.27132 0.40266 4.89016
v -1.95573 -0.00336 4.65209
v -1.15085 0.36728 4.89041
v -1.52764 0.47792 4.87311
v -1.87594 1.21659 4.58948
v -1.15085 0.36728 4.89041
v -1.52764 0.47792 4.87311
v -2.22001 0.04481 4.58948
v -1.40717 0.44255 4.88392
v -1.78396 0.55318 4.83362
v -2.12962 1.30085 4.50442
v -1.40717 0.44255 4.88392
v -1.78396 0.55318 4.83362
v -2.47897 0.11108 4.50442
v -1.66349 0.51781 4.85498
v -2.04029 0.62844 4.77169
v -2.38859 1.36712 4.39691
v -1.66349 0.51781 4.85498
v -2.04029 0.62844 4.77169
v -2.73265 0.19534 4.39691
v -1.91981 0.59307 4.80359
v -2.29661 0.70371 4.68730
v -2.65286 1.41529 4.26695
v -1.91981 0.59307 4.80359
v -2.29661 0.70371 4.68730
v -2.98102 0.29769 4.26695
v -2.17614 0.66833 4.72976
v -2.55293 0.77897 4.58046
v -2.92257 1.44497 4.11454
v -2.17614 0.66833 4.72976
v -2.55293 0.77897 4.58046
v -3.22396 0.41854 4.11454
v -2.43246 0.74360 4.63347
v -2.80925 0.85423 4.45118
v -3.19802 1.45507 3.93969
v -2.43246 0.74360 4.63347
v -2.80925 0.85423 4.45118
v -3.46115 0.55896 3.93969
v -2.68878 0.81886 4.51474
v -3.06557 0.92950 4.29944
v -3.48007 1.44274 3.74238
v -2.68878 0.81886 4.51474
v -3.06557 0.92950 4.29944
v -3.69175 0.72182 3.74238
v 0.09014 -0.03358 4.60000
v 0.10986 0.03358 4.60000
v -0.19904 0.08781 4.71806
v -0.20890 0.05422 4.71806
v -0.18918 0.12139 4.71806
v -0.49808 0.17561 4.80556
v -0.50794 0.14203 4.80556
v -0.48822 0.20920 4.80556
v -0.79713 0.26342 4.86250
v -0.80699 0.22984 4.86250
v -0.78727 0.29700 4.86250
v -1.09617 0.35123 4.88889
v -1.10603 0.31764 4.88889
v -1.08631 0.38481 4.88889
v -1.39521 0.43903 4.88472
v -1.40507 0.40545 4.88472
v -1.38535 0.47262 4.88472
v -1.69425 0.52684 4.85000
v -1.70411 0.49326 4.85000
v -1.68439 0.56042 4.85000
v -1.99329 0.61465 4.78472
v -2.00315 0.58106 4.78472
v -1.98343 0.64823 4.78472
v -2.29234 0.70245 4.68889
v -2.30220 0.66887 4.68889
v -2.28248 0.73604 4.68889
v -2.59138 0.79026 4.56250
v -2.60124 0.75668 4.56250
v -2.58152 0.82384 4.56250
v -2.89042 0.87807 4.40556
v -2.90028 0.84448 4.40556
v -2.88056 0.91165 4.40556
v -3.18946 0.96587 4.21806
v -3.19932 0.93229 4.21806
v -3.17960 0.99946 4.21806
v -3.48850 1.05368 4.00000
v 0.12714 0.00797 4.58612
v -0.20532 -0.08965 4.73383
v -0.73534 0.01701 4.67805
v 0.12714 0.00797 4.58612
v -0.20532 -0.08965 4.73383
v -0.59354 -0.46593 4.67805
v -0.09903 -0.05844 4.69188
v -0.43149 -0.15606 4.80658
v -0.99645 0.06959 4.70524
v -0.09903 -0.05844 4.69188
v -0.43149 -0.15606 4.80658
v -0.78477 -0.65133 4.70524
v -0.32519 -0.12485 4.77519
v -0.65766 -0.22247 4.85689
v -1.24833 0.09078 4.70997
v -0.32519 -0.12485 4.77519
v -0.65766 -0.22247 4.85689
v -0.98521 -0.80533 4.70997
v -0.55136 -0.19126 4.83604
v -0.88382 -0.28888 4.88475
v -1.49363 0.08953 4.69226
v -0.55136 -0.19126 4.83604
v -0.88382 -0.28888 4.88475
v -1.19225 -0.93690 4.69226
v -0.77752 -0.25766 4.87445
v -1.10999 -0.35528 4.89016
v -1.73319 0.06871 4.65209
v -0.77752 -0.25766 4.87445
v -1.10999 -0.35528 4.89016
v -1.40503 -1.04890 4.65209
v -1.00369 -0.32407 4.89041
v -1.33616 -0.42169 4.87311
v -1.96731 0.02939 4.58948
v -1.00369 -0.32407 4.89041
v -1.33616 -0.42169 4.87311
v -1.62324 -1.14239 4.58948
v -1.22986 -0.39048 4.88392
v -1.56232 -0.48810 4.83362
v -2.19611 -0.02803 4.50442
v -1.22986 -0.39048 4.88392
v -1.56232 -0.48810 4.83362
v -1.84676 -1.21780 4.50442
v -1.45602 -0.45689 4.85498
v -1.78849 -0.55451 4.77169
v -2.41964 -0.10343 4.39691
v -1.45602 -0.45689 4.85498
v -1.78849 -0.55451 4.77169
v -2.07557 -1.27521 4.39691
v -1.68219 -0.52330 4.80359
v -2.01465 -0.62092 4.68730
v -2.63785 -0.19692 4.26695
v -1.68219 -0.52330 4.80359
v -2.01465 -0.62092 4.68730
v -2.30969 -1.31453 4.26695
v -1.90836 -0.58971 4.72976
v -2.24082 -0.68733 4.58046
v -2.85063 -0.30892 4.11454
v -1.90836 -0.58971 4.72976
v -2.24082 -0.68733 4.58046
v -2.54924 -1.33535 4.11454
v -2.13452 -0.65611 4.63347
v -2.46699 -0.75374 4.45118
v -3.05766 -0.44049 3.93969
v -2.13452 -0.65611 4.63347
v -2.46699 -0.75374 4.45118
v -2.79454 -1.33660 3.93969
v -2.36069 -0.72252 4.51474
v -2.69315 -0.82014 4.29944
v -3.25811 -0.59449 3.74238
v -2.36069 -0.72252 4.51474
v -2.69315 -0.82014 4.29944
v -3.04643 -1.31541 3.74238
v 0.10986 -0.03358 4.60000
v 0.09014 0.03358 4.60000
v -0.16386 -0.07748 4.71806
v -0.15400 -0.11106 4.71806
v -0.17372 -0.04389 4.71806
v -0.42772 -0.15495 4.80556
v -0.41786 -0.18854 4.80556
v -0.43758 -0.12137 4.80556
v -0.69158 -0.23243 4.86250
v -0.68172 -0.26601 4.86250
v -0.70144 -0.19885 4.86250
v -0.95544 -0.30991 4.88889
v -0.94558 -0.34349 4.88889
v -0.96530 -0.27632 4.88889
v -1.21930 -0.38738 4.88472
v -1.20944 -0.42096 4.88472
v -1.22916 -0.35380 4.88472
v -1.48316 -0.46486 4.85000
v -1.47330 -0.49844 4.85000
v -1.49302 -0.43128 4.85000
v -1.74702 -0.54234 4.78472
v -1.73716 -0.57592 4.78472
v -1.75688 -0.50875 4.78472
v -2.01088 -0.61981 4.68889
v -2.00102 -0.65339 4.68889
v -2.02075 -0.58623 4.68889
v -2.27475 -0.69729 4.56250
v -2.26488 -0.73087 4.56250
v -2.28461 -0.66371 4.56250
v -2.53861 -0.77476 4.40556
v -2.52875 -0.80835 4.40556
v -2.54847 -0.74118 4.40556
v -2.80247 -0.85224 4.21806
v -2.79261 -0.88582 4.21806
v -2.81233 -0.81866 4.21806
v -3.06633 -0.92972 4.00000
v 0.11976 0.02280 4.58612
v -0.12228 -0.25652 4.73383
v -0.64671 -0.47746 4.67805
v 0.11976 0.02280 4.58612
v -0.12228 -0.25652 4.73383
v -0.26633 -0.80706 4.67805
v -0.04489 -0.16721 4.69188
v -0.28693 -0.44654 4.80658
v -0.90509 -0.58626 4.70524
v -0.04489 -0.16721 4.69188
v -0.28693 -0.44654 4.80658
v -0.33725 -1.07829 4.70524
v -0.20954 -0.35723 4.77519
v -0.45158 -0.63656 4.85689
v -1.13873 -0.71649 4.70997
v -0.20954 -0.35723 4.77519
v -0.45158 -0.63656 4.85689
v -0.43291 -1.32809 4.70997
v -0.37419 -0.54725 4.83604
v -0.61623 -0.82657 4.88475
v -1.35471 -0.86203 4.69226
v -0.37419 -0.54725 4.83604
v -0.61623 -0.82657 4.88475
v -0.54623 -1.56258 4.69226
v -0.53884 -0.73727 4.87445
v -0.78088 -1.01659 4.89016
v -1.55527 -1.02094 4.65209
v -0.53884 -0.73727 4.87445
v -0.78088 -1.01659 4.89016
v -0.67498 -1.78371 4.65209
v -0.70350 -0.92728 4.89041
v -0.94553 -1.20661 4.87311
v -1.74125 -1.19247 4.58948
v -0.70350 -0.92728 4.89041
v -0.94553 -1.20661 4.87311
v -0.81829 -1.99222 4.58948
v -0.86815 -1.11730 4.88392
v -1.11018 -1.39663 4.83362
v -1.91299 -1.37635 4.50442
v -0.86815 -1.11730 4.88392
v -1.11018 -1.39663 4.83362
v -0.97586 -2.18837 4.50442
v -1.03280 -1.30732 4.85498
v -1.27483 -1.58664 4.77169
v -2.07055 -1.57250 4.39691
v -1.03280 -1.30732 4.85498
v -1.27483 -1.58664 4.77169
v -1.14759 -2.37225 4.39691
v -1.19745 -1.49733 4.80359
v -1.43948 -1.77666 4.68730
v -2.21387 -1.78101 4.26695
v -1.19745 -1.49733 4.80359
v -1.43948 -1.77666 4.68730
v -1.33358 -2.54378 4.26695
v -1.36210 -1.68735 4.72976
v -1.60413 -1.96668 4.58046
v -2.34261 -2.00214 4.11454
v -1.36210 -1.68735 4.72976
v -1.60413 -1.96668 4.58046
v -1.53414 -2.70269 4.11454
v -1.52675 -1.87737 4.63347
v -1.76879 -2.15669 4.45118
v -2.45594 -2.23663 3.93969
v -1.52675 -1.87737 4.63347
v -1.76879 -2.15669 4.45118
v -1.75011 -2.84823 3.93969
v -1.69140 -2.06739 4.51474
v -1.93344 -2.34671 4.29944
v -2.55160 -2.48643 3.74238
v -1.69140 -2.06739 4.51474
v -1.93344 -2.34671 4.29944
v -1.98376 -2.97846 3.74238
v 0.12645 -0.02292 4.60000
v 0.07355 0.02292 4.60000
v -0.09209 -0.22169 4.71806
v -0.06564 -0.24461 4.71806
v -0.11854 -0.19877 4.71806
v -0.28418 -0.44337 4.80556
v -0.25773 -0.46629 4.80556
v -0.31064 -0.42045 4.80556
v -0.47628 -0.66506 4.86250
v -0.44983 -0.68798 4.86250
v -0.50273 -0.64214 4.86250
v -0.66837 -0.88675 4.88889
v -0.64192 -0.90967 4.88889
v -0.69482 -0.86383 4.88889
v -0.86046 -1.10843 4.88472
v -0.83401 -1.13135 4.88472
v -0.88691 -1.08551 4.88472
v -1.05255 -1.33012 4.85000
v -1.02610 -1.35304 4.85000
v -1.07901 -1.30720 4.85000
v -1.24465 -1.55181 4.78472
v -1.21820 -1.57473 4.78472
v -1.27110 -1.52889 4.78472
v -1.43674 -1.77349 4.68889
v -1.41029 -1.79641 4.68889
v -1.46319 -1.75057 4.68889
v -1.62883 -1.99518 4.56250
v -1.60238 -2.01810 4.56250
v -1.65528 -1.97226 4.56250
v -1.82092 -2.21687 4.40556
v -1.79447 -2.23979 4.40556
v -1.84738 -2.19395 4.40556
v -2.01302 -2.43855 4.21806
v -1.98657 -2.46147 4.21806
v -2.03947 -2.41563 4.21806
v -2.20511 -2.66024 4.00000
v 0.10456 0.03173 4.58612
v 0.04868 -0.35697 4.73383
v -0.27760 -0.85794 4.67805
v 0.10456 0.03173 4.58612
v 0.04868 -0.35697 4.73383
v 0.22060 -0.92957 4.67805
v 0.06654 -0.23269 4.69188
v 0.01066 -0.62140 4.80658
v -0.43837 -1.10471 4.70524
v 0.06654 -0.23269 4.69188
v 0.01066 -0.62140 4.80658
v 0.30533 -1.21164 4.70524
v 0.02853 -0.49712 4.77519
v -0.02736 -0.88582 4.85689
v -0.56676 -1.35614 4.70997
v 0.02853 -0.49712 4.77519
v -0.02736 -0.88582 4.85689
v 0.35768 -1.48906 4.70997
v -0.00949 -0.76154 4.83604
v -0.06538 -1.15024 4.88475
v -0.67200 -1.61090 4.69226
v -0.00949 -0.76154 4.83604
v -0.06538 -1.15024 4.88475
v 0.38688 -1.76315 4.69226
v -0.04751 -1.02596 4.87445
v -0.10340 -1.41467 4.89016
v -0.75704 -1.86856 4.65209
v -0.04751 -1.02596 4.87445
v -0.10340 -1.41467 4.89016
v 0.39589 -2.03433 4.65209
v -0.08553 -1.29039 4.89041
v -0.14142 -1.67909 4.87311
v -0.82300 -2.12897 4.58948
v -0.08553 -1.29039 4.89041
v -0.14142 -1.67909 4.87311
v 0.38582 -2.30277 4.58948
v -0.12355 -1.55481 4.88392
v -0.17944 -1.94351 4.83362
v -0.87030 -2.39206 4.50442
v -0.12355 -1.55481 4.88392
v -0.17944 -1.94351 4.83362
v 0.35708 -2.56853 4.50442
v -0.16157 -1.81924 4.85498
v -0.21745 -2.20794 4.77169
v -0.89904 -2.65782 4.39691
v -0.16157 -1.81924 4.85498
v -0.21745 -2.20794 4.77169
v 0.30978 -2.83162 4.39691
v -0.19958 -2.08366 4.80359
v -0.25547 -2.47236 4.68730
v -0.90912 -2.92626 4.26695
v -0.19958 -2.08366 4.80359
v -0.25547 -2.47236 4.68730
v 0.24382 -3.09203 4.26695
v -0.23760 -2.34808 4.72976
v -0.29349 -2.73679 4.58046
v -0.90011 -3.19744 4.11454
v -0.23760 -2.34808 4.72976
v -0.29349 -2.73679 4.58046
v 0.15877 -3.34969 4.11454
v -0.27562 -2.61251 4.63347
v -0.33151 -3.00121 4.45118
v -0.87090 -3.47153 3.93969
v -0.27562 -2.61251 4.63347
v -0.33151 -3.00121 4.45118
v 0.05353 -3.60445 3.93969
v -0.31364 -2.87693 4.51474
v -0.36953 -3.26563 4.29944
v -0.81856 -3.74895 3.74238
v -0.31364 -2.87693 4.51474
v -0.36953 -3.26563 4.29944
v -0.07485 -3.85588 3.74238
v 0.13464 -0.00498 4.60000
v 0.06536 0.00498 4.60000
v 0.05565 -0.30849 4.71806
v 0.09029 -0.31348 4.71806
v 0.02100 -0.30351 4.71806
v 0.01129 -0.61699 4.80556
v 0.04593 -0.62197 4.80556
v -0.02335 -0.61201 4.80556
v -0.03306 -0.92548 4.86250
v 0.00158 -0.93046 4.86250
v -0.06771 -0.92050 4.86250
v -0.07742 -1.23398 4.88889
v -0.04278 -1.23896 4.88889
v -0.11206 -1.22900 4.88889
v -0.12177 -1.54247 4.88472
v -0.08713 -1.54745 4.88472
v -0.15642 -1.53749 4.88472
v -0.16613 -1.85097 4.85000
v -0.13148 -1.85595 4.85000
v -0.20077 -1.84599 4.85000
v -0.21048 -2.15946 4.78472
v -0.17584 -2.16444 4.78472
v -0.24513 -2.15448 4.78472
v -0.25484 -2.46795 4.68889
v -0.22019 -2.47294 4.68889
v -0.28948 -2.46297 4.68889
v -0.29919 -2.77645 4.56250
v -0.26455 -2.78143 4.56250
v -0.33384 -2.77147 4.56250
v -0.34355 -3.08494 4.40556
v -0.30890 -3.08992 4.40556
v -0.37819 -3.07996 4.40556
v -0.38790 -3.39344 4.21806
v -0.35326 -3.39842 4.21806
v -0.42255 -3.38846 4.21806
v -0.43226 -3.70193 4.00000
v 0.08825 0.02573 4.58612
v 0.23219 -0.28946 4.73383
v 0.20205 -0.82926 4.67805
v 0.08825 0.02573 4.58612
v 0.23219 -0.28946 4.73383
v 0.65989 -0.62017 4.67805
v 0.18617 -0.18868 4.69188
v 0.33011 -0.50387 4.80658
v 0.18716 -1.09519 4.70524
v 0.18617 -0.18868 4.69188
v 0.33011 -0.50387 4.80658
v 0.87062 -0.78307 4.70524
v 0.28409 -0.40310 4.77519
v 0.42803 -0.71828 4.85689
v 0.20203 -1.34753 4.70997
v 0.28409 -0.40310 4.77519
v 0.42803 -0.71828 4.85689
v 1.05158 -0.95956 4.70997
v 0.38201 -0.61751 4.83604
v 0.52595 -0.93270 4.88475
v 0.23818 -1.59016 4.69226
v 0.38201 -0.61751 4.83604
v 0.52595 -0.93270 4.88475
v 1.21127 -1.14576 4.69226
v 0.47993 -0.83192 4.87445
v 0.62387 -1.14711 4.89016
v 0.29288 -1.82431 4.65209
v 0.47993 -0.83192 4.87445
v 0.62387 -1.14711 4.89016
v 1.35241 -1.34043 4.65209
v 0.57785 -1.04634 4.89041
v 0.72179 -1.36152 4.87311
v 0.36512 -2.05045 4.58948
v 0.57785 -1.04634 4.89041
v 0.72179 -1.36152 4.87311
v 1.47601 -1.54312 4.58948
v 0.67577 -1.26075 4.88392
v 0.81971 -1.57594 4.83362
v 0.45451 -2.26875 4.50442
v 0.67577 -1.26075 4.88392
v 0.81971 -1.57594 4.83362
v 1.58245 -1.75364 4.50442
v 0.77368 -1.47516 4.85498
v 0.91763 -1.79035 4.77169
v 0.56096 -2.47927 4.39691
v 0.77368 -1.47516 4.85498
v 0.91763 -1.79035 4.77169
v 1.67185 -1.97195 4.39691
v 0.87160 -1.68958 4.80359
v 1.01555 -2.00476 4.68730
v 0.68456 -2.68196 4.26695
v 0.87160 -1.68958 4.80359
v 1.01555 -2.00476 4.68730
v 1.74409 -2.19809 4.26695
v 0.96952 -1.90399 4.72976
v 1.11346 -2.21918 4.58046
v 0.82569 -2.87663 4.11454
v 0.96952 -1.90399 4.72976
v 1.11346 -2.21918 4.58046
v 1.79879 -2.43224 4.11454
v 1.06744 -2.11840 4.63347
v 1.21138 -2.43359 4.45118
v 0.98539 -3.06284 3.93969
v 1.06744 -2.11840 4.63347
v 1.21138 -2.43359 4.45118
v 1.83493 -2.67486 3.93969
v 1.16536 -2.33282 4.51474
v 1.30930 -2.64800 4.29944
v 1.16635 -3.23932 3.74238
v 1.16536 -2.33282 4.51474
v 1.30930 -2.64800 4.29944
v 1.84981 -2.92720 3.74238
v 0.13184 0.01454 4.60000
v 0.06816 -0.01454 4.60000
v 0.21424 -0.25015 4.71806
v 0.24608 -0.23561 4.71806
v 0.18240 -0.26469 4.71806
v 0.32848 -0.50030 4.80556
v 0.36032 -0.48576 4.80556
v 0.29664 -0.51484 4.80556
v 0.44272 -0.75045 4.86250
v 0.47455 -0.73591 4.86250
v 0.41088 -0.76499 4.86250
v 0.55696 -1.00060 4.88889
v 0.58879 -0.98606 4.88889
v 0.52512 -1.01513 4.88889
v 0.67120 -1.25074 4.88472
v 0.70303 -1.23620 4.88472
v 0.63936 -1.26528 4.88472
v 0.78543 -1.50089 4.85000
v 0.81727 -1.48635 4.85000
v 0.75360 -1.51543 4.85000
v 0.89967 -1.75104 4.78472
v 0.93151 -1.73650 4.78472
v 0.86784 -1.76558 4.78472
v 1.01391 -2.00119 4.68889
v 1.04575 -1.98665 4.68889
v 0.98208 -2.01573 4.68889
v 1.12815 -2.25134 4.56250
v 1.15999 -2.23680 4.56250
v 1.09632 -2.26588 4.56250
v 1.24239 -2.50149 4.40556
v 1.27423 -2.48695 4.40556
v 1.21055 -2.51603 4.40556
v 1.35663 -2.75164 4.21806
v 1.38847 -2.73710 4.21806
v 1.32479 -2.76618 4.21806
v 1.47087 -3.00179 4.00000
v 0.07462 0.01631 4.58612
v 0.38555 -0.18351 4.73383
v 0.67886 -0.67116 4.67805
v 0.07462 0.01631 4.58612
v 0.38555 -0.18351 4.73383
v 0.95098 -0.24774 4.67805
v 0.28613 -0.11962 4.69188
v 0.59706 -0.31944 4.80658
v 0.82333 -0.91142 4.70524
v 0.28613 -0.11962 4.69188
v 0.59706 -0.31944 4.80658
v 1.22954 -0.27934 4.70524
v 0.49765 -0.25555 4.77519
v 0.80858 -0.45537 4.85689
v 0.98549 -1.12416 4.70997
v 0.49765 -0.25555 4.77519
v 0.80858 -0.45537 4.85689
v 1.49041 -0.33848 4.70997
v 0.70916 -0.39149 4.83604
v 1.02009 -0.59131 4.88475
v 1.16029 -1.31722 4.69226
v 0.70916 -0.39149 4.83604
v 1.02009 -0.59131 4.88475
v 1.73865 -0.41728 4.69226
v 0.92068 -0.52742 4.87445
v 1.23161 -0.72724 4.89016
v 1.34612 -1.49312 4.65209
v 0.92068 -0.52742 4.87445
v 1.23161 -0.72724 4.89016
v 1.97585 -0.51324 4.65209
v 1.13219 -0.66335 4.89041
v 1.44312 -0.86317 4.87311
v 1.54237 -1.65281 4.58948
v 1.13219 -0.66335 4.89041
v 1.44312 -0.86317 4.87311
v 2.20263 -0.62542 4.58948
v 1.34371 -0.79928 4.88392
v 1.65464 -0.99910 4.83362
v 1.74882 -1.79662 4.50442
v 1.34371 -0.79928 4.88392
v 1.65464 -0.99910 4.83362
v 2.41921 -0.75347 4.50442
v 1.55522 -0.93522 4.85498
v 1.86615 -1.13504 4.77169
v 1.96540 -1.92467 4.39691
v 1.55522 -0.93522 4.85498
v 1.86615 -1.13504 4.77169
v 2.62566 -0.89729 4.39691
v 1.76674 -1.07115 4.80359
v 2.07767 -1.27097 4.68730
v 2.19218 -2.03685 4.26695
v 1.76674 -1.07115 4.80359
v 2.07767 -1.27097 4.68730
v 2.82191 -1.05697 4.26695
v 1.97825 -1.20708 4.72976
v 2.28918 -1.40690 4.58046
v 2.42938 -2.13282 4.11454
v 1.97825 -1.20708 4.72976
v 2.28918 -1.40690 4.58046
v 3.00774 -1.23287 4.11454
v 2.18977 -1.34301 4.63347
v 2.50070 -1.54283 4.45118
v 2.67761 -2.21162 3.93969
v 2.18977 -1.34301 4.63347
v 2.50070 -1.54283 4.45118
v 3.18254 -1.42594 3.93969
v 2.40129 -1.47895 4.51474
v 2.71221 -1.67877 4.29944
v 2.93848 -2.27075 3.74238
v 2.40129 -1.47895 4.51474
v 2.71221 -1.67877 4.29944
v 3.34470 -1.63867 3.74238
v 0.11892 0.02944 4.60000
v 0.08108 -0.02944 4.60000
v 0.34677 -0.15859 4.71806
v 0.36569 -0.12914 4.71806
v 0.32785 -0.18803 4.71806
v 0.59354 -0.31718 4.80556
v 0.61246 -0.28773 4.80556
v 0.57461 -0.34662 4.80556
v 0.84030 -0.47576 4.86250
v 0.85923 -0.44632 4.86250
v 0.82138 -0.50521 4.86250
v 1.08707 -0.63435 4.88889
v 1.10599 -0.60491 4.88889
v 1.06815 -0.66380 4.88889
v 1.33384 -0.79294 4.88472
v 1.35276 -0.76350 4.88472
v 1.31492 -0.82238 4.88472
v 1.58061 -0.95153 4.85000
v 1.59953 -0.92208 4.85000
v 1.56168 -0.98097 4.85000
v 1.82737 -1.11012 4.78472
v 1.84630 -1.08067 4.78472
v 1.80845 -1.13956 4.78472
v 2.07414 -1.26870 4.68889
v 2.09306 -1.23926 4.68889
v 2.05522 -1.29815 4.68889
v 2.32091 -1.42729 4.56250
v 2.33983 -1.39785 4.56250
v 2.30199 -1.45674 4.56250
v 2.56768 -1.58588 4.40556
v 2.58660 -1.55644 4.40556
v 2.54875 -1.61532 4.40556
v 2.81444 -1.74447 4.21806
v 2.83337 -1.71502 4.21806
v 2.79552 -1.77391 4.21806
v 3.06121 -1.90306 4.00000
vn 0.2843719 0.6885510 -0.6671058
vn -0.2843719 0.6885510 0.6671058
vn 0.2627257 0.5487358 -0.7936398
vn -0.2627257 0.5487358 0.7936398
vn 0.2018261 0.4761000 -0.8559176
vn -0.2018261 0.4761000 0.8559176
vn 0.1254433 0.4333842 -0.8924361
vn -0.1254433 0.4333842 0.8924361
vn 0.0413588 0.4069784 -0.9125010
vn -0.0413588 0.4069784 0.9125010
vn -0.0458822 0.3910271 -0.9192348
vn 0.0458822 0.3910271 0.9192348
vn -0.1326933 0.3829934 -0.9141710
vn 0.1326933 0.3829934 0.9141710
vn -0.2159862 0.3821999 -0.8984838
vn 0.2159862 0.3821999 0.8984838
vn -0.2930643 0.3894423 -0.8731827
vn 0.2930643 0.3894423 0.8731827
vn -0.3613874 0.4073117 -0.8387469
vn 0.3613874 0.4073117 0.8387469
vn -0.4177278 0.4416600 -0.7940025
vn 0.4177278 0.4416600 0.7940025
vn -0.4550860 0.5064104 -0.7324243
vn 0.4550860 0.5064104 0.7324243
vn -0.3944793 0.0000000 0.9189048
vn -0.3032037 0.0000000 0.9529258
vn -0.2027691 0.0000000 0.9792266
vn -0.0955208 0.0000000 0.9954274
vn 0.0151498 0.0000000 0.9998852
vn 0.1252680 0.0000000 0.9921229
vn 0.2309561 0.0000000 0.9729642
vn 0.3290755 0.0000000 0.9443036
vn 0.4176026 0.0000000 0.9086298
vn 0.4956665 0.0000000 0.8685129
vn 0.5633368 0.0000000 0.8262273
vn 0.6213109 0.0000000 0.7835641
vn -0.1487116 0.7269481 -0.6703964
vn -0.5994782 0.4372580 0.6703964
vn -0.0898400 0.5972901 -0.7969776
vn -0.5059933 0.3298446 0.7969776
vn -0.0984670 0.5040613 -0.8580364
vn -0.4176056 0.2989634 0.8580364
vn -0.1355003 0.4285755 -0.8932876
vn -0.3335572 0.3012922 0.8932876
vn -0.1874299 0.3633724 -0.9125955
vn -0.2526740 0.3214425 0.9125955
vn -0.2476229 0.3057365 -0.9193520
vn -0.1752414 0.3522532 0.9193520
vn -0.3120466 0.2552111 -0.9151471
vn -0.1025193 0.3898661 0.9151471
vn -0.3780451 0.2126558 -0.9010324
vn -0.0363929 0.4322224 0.9010324
vn -0.4439958 0.1800184 -0.8777591
vn 0.0206920 0.4786552 0.8777591
vn -0.5092697 0.1607592 -0.8454590
vn 0.0653265 0.5300298 0.8454590
vn -0.5743313 0.1615382 -0.8025266
vn 0.0916455 0.5895355 0.8025266
vn -0.6407873 0.1978556 -0.7417849
vn 0.0862169 0.6650728 0.7417849
vn -0.3140895 -0.2018530 0.9276870
vn -0.2404715 -0.1545416 0.9582747
vn -0.1603186 -0.1030305 0.9816734
vn -0.0753765 -0.0484416 0.9959778
vn 0.0119484 0.0076788 0.9998991
vn 0.0988898 0.0635526 0.9930669
vn 0.1827405 0.1174402 0.9761218
vn 0.2612523 0.1678966 0.9505567
vn 0.3328865 0.2139331 0.9183786
vn 0.3968680 0.2550516 0.8817281
vn 0.4530808 0.2911773 0.8425756
vn 0.5018833 0.3225408 0.8025463
vn -0.5268322 0.5189437 -0.6731607
vn -0.7371932 0.0583174 0.6731607
vn -0.4059621 0.4422139 -0.7997760
vn -0.6000516 0.0172172 0.7997760
vn -0.3607286 0.3614018 -0.8598044
vn -0.5093563 0.0359527 0.8598044
vn -0.3488482 0.2812076 -0.8939951
vn -0.4409695 0.0794901 0.8939951
vn -0.3551081 0.2022985 -0.9126739
vn -0.3854333 0.1358954 0.9126739
vn -0.3725954 0.1256420 -0.9194492
vn -0.3389520 0.1993108 0.9194492
vn -0.3977971 0.0527022 -0.9159585
vn -0.3003314 0.2661224 0.9159585
vn -0.4290514 -0.0146584 -0.9031611
vn -0.2698909 0.3338546 0.9031611
vn -0.4661238 -0.0741466 -0.8816070
vn -0.2492100 0.4008286 0.8816070
vn -0.5104027 -0.1226385 -0.8511456
vn -0.2415587 0.4660478 0.8511456
vn -0.5659050 -0.1548239 -0.8098032
vn -0.2535809 0.5290705 0.8098032
vn -0.6423588 -0.1585680 -0.7498209
vn -0.3008179 0.5893023 0.7498209
vn -0.1471512 -0.3222163 0.9351594
vn -0.1122860 -0.2458719 0.9627766
vn -0.0746642 -0.1634919 0.9837152
vn -0.0350479 -0.0767442 0.9964346
vn 0.0055532 0.0121598 0.9999106
vn 0.0459961 0.1007173 0.9938513
vn 0.0851597 0.1864738 0.9787621
vn 0.1220931 0.2673465 0.9558343
vn 0.1561134 0.3418406 0.9267004
vn 0.1868367 0.4091153 0.8931499
vn 0.2141490 0.4689209 0.8568859
vn 0.2381434 0.5214614 0.8193691
vn -0.7220128 0.1834864 -0.6671058
vn -0.6410722 -0.3794684 0.6671058
vn -0.5805402 0.1819583 -0.7936398
vn -0.5057607 -0.3381448 0.7936398
vn -0.4999769 0.1320157 -0.8559176
vn -0.4425312 -0.2675279 0.8559176
vn -0.4468254 0.0624894 -0.8924361
vn -0.4111205 -0.1858435 0.8924361
vn -0.4087219 -0.0169812 -0.9125010
vn -0.3969500 -0.0988569 0.9125010
vn -0.3805173 -0.1010641 -0.9192348
vn -0.3935767 -0.0102338 0.9192348
vn -0.3602109 -0.1858483 -0.9141710
vn -0.3979793 0.0768370 0.9141710
vn -0.3475717 -0.2681805 -0.8984838
vn -0.4090477 0.1593950 0.8984838
vn -0.3437709 -0.3455047 -0.8731827
vn -0.4271857 0.2346579 0.8731827
vn -0.3517351 -0.4156755 -0.8387469
vn -0.4545966 0.2997424 0.8387469
vn -0.3777157 -0.4763307 -0.7940025
vn -0.4966134 0.3506211 0.7940025
vn -0.4364903 -0.5225235 -0.7324243
vn -0.5660213 0.3783841 0.7324243
vn 0.0561403 -0.3904641 0.9189048
vn 0.0431504 -0.3001175 0.9529258
vn 0.0288571 -0.2007052 0.9792266
vn 0.0135940 -0.0945486 0.9954274
vn -0.0021560 0.0149956 0.9998852
vn -0.0178275 0.1239930 0.9921229
vn -0.0328685 0.2286053 0.9729642
vn -0.0468323 0.3257260 0.9443036
vn -0.0594310 0.4133520 0.9086298
vn -0.0705407 0.4906213 0.8685129
vn -0.0801712 0.5576029 0.8262273
vn -0.0884218 0.6149869 0.7835641
vn -0.6983850 -0.2506534 -0.6703964
vn -0.3474927 -0.6556047 0.6703964
vn -0.5784250 -0.1739288 -0.7969776
vn -0.2544769 -0.5477848 0.7969776
vn -0.4849173 -0.1692002 -0.8580364
vn -0.2364889 -0.4559019 0.8580364
vn -0.4049296 -0.1951138 -0.8932876
vn -0.2507553 -0.3730404 0.8932876
vn -0.3329997 -0.2372354 -0.9125955
vn -0.2822115 -0.2958481 0.9125955
vn -0.2673841 -0.2886133 -0.9193520
vn -0.3237283 -0.2235886 0.9193520
vn -0.2082045 -0.3451908 -0.9151471
vn -0.3713078 -0.1569595 0.9151471
vn -0.1566898 -0.4044613 -0.9010324
vn -0.4226437 -0.0975341 0.9010324
vn -0.1149989 -0.4650959 -0.8777591
vn -0.4767279 -0.0476383 0.8777591
vn -0.0866463 -0.5269645 -0.8454590
vn -0.5339318 -0.0107695 0.8454590
vn -0.0781581 -0.5914747 -0.8025266
vn -0.5965774 0.0068130 0.8025266
vn -0.1046482 -0.6624227 -0.7417849
vn -0.6705732 -0.0093104 0.7417849
vn 0.2444981 -0.2821658 0.9276870
vn 0.1871913 -0.2160302 0.9582747
vn 0.1247975 -0.1440240 0.9816734
vn 0.0586757 -0.0677154 0.9959778
vn -0.0093011 0.0107340 0.9998991
vn -0.0769792 0.0888388 0.9930669
vn -0.1422515 0.1641670 0.9761218
vn -0.2033678 0.2346989 0.9505567
vn -0.2591303 0.2990523 0.9183786
vn -0.3089357 0.3565309 0.8817281
vn -0.3526937 0.4070302 0.8425756
vn -0.3906833 0.4508725 0.8025463
vn -0.4386855 -0.5953232 -0.6731607
vn 0.0471898 -0.7379891 0.6731607
vn -0.3799383 -0.4647636 -0.7997760
vn 0.0683543 -0.5963942 0.7997760
vn -0.3063862 -0.4084898 -0.8598044
vn 0.0369022 -0.5092884 0.8598044
vn -0.2286990 -0.3853174 -0.8939951
vn -0.0159245 -0.4477937 0.8939951
vn -0.1497023 -0.3802836 -0.9126739
vn -0.0796593 -0.4008501 0.9126739
vn -0.0713373 -0.3866836 -0.9194492
vn -0.1490442 -0.3638668 0.9194492
vn 0.0044466 -0.4012484 -0.9159585
vn -0.2206720 -0.3351476 0.9159585
vn 0.0755696 -0.4225982 -0.9031611
vn -0.2920470 -0.3146562 0.9031611
vn 0.1397282 -0.4508272 -0.8816070
vn -0.3612824 -0.3037172 0.8816070
vn 0.1940281 -0.4877543 -0.8511456
vn -0.4269267 -0.3054255 0.8511456
vn 0.2337847 -0.5381111 -0.8098032
vn -0.4875970 -0.3262944 0.8098032
vn 0.2483712 -0.6132540 -0.7498209
vn -0.5404932 -0.3816225 0.7498209
vn 0.3398784 -0.0997973 0.9351594
vn 0.2593493 -0.0761518 0.9627766
vn 0.1724536 -0.0506369 0.9837152
vn 0.0809508 -0.0237693 0.9964346
vn -0.0128263 0.0037661 0.9999106
vn -0.1062381 0.0311943 0.9938513
vn -0.1966953 0.0577549 0.9787621
vn -0.2820010 0.0828030 0.9558343
vn -0.3605784 0.1058754 0.9267004
vn -0.4315407 0.1267118 0.8931499
vn -0.4946246 0.1452349 0.8568859
vn -0.5500450 0.1615078 0.8193691
vn -0.0788656 -0.7407766 -0.6671058
vn 0.4668401 -0.5805430 0.6671058
vn -0.0974867 -0.6005265 -0.7936398
vn 0.4066802 -0.4524898 0.7936398
vn -0.0595179 -0.5136756 -0.8559176
vn 0.3277836 -0.3999537 0.8559176
vn 0.0017365 -0.4511706 -0.8924361
vn 0.2424604 -0.3804876 0.8924361
vn 0.0749756 -0.4021450 -0.9125010
vn 0.1543425 -0.3788408 0.9125010
vn 0.1541887 -0.3622612 -0.9192348
vn 0.0661415 -0.3881142 0.9192348
vn 0.2352200 -0.3300955 -0.9141710
vn -0.0194166 -0.4048635 0.9141710
vn 0.3149154 -0.3058678 -0.8984838
vn -0.0995590 -0.4275685 0.8984838
vn 0.3909117 -0.2911014 -0.8731827
vn -0.1714746 -0.4562329 0.8731827
vn 0.4615016 -0.2889981 -0.8387469
vn -0.2319957 -0.4926273 0.8387469
vn 0.5252369 -0.3060822 -0.7940025
vn -0.2763769 -0.5414572 0.7940025
vn 0.5793241 -0.3576846 -0.7324243
vn -0.2939795 -0.6141097 0.7324243
vn 0.3785002 0.1111377 0.9189048
vn 0.2909218 0.0854223 0.9529258
vn 0.1945556 0.0571267 0.9792266
vn 0.0916516 0.0269113 0.9954274
vn -0.0145361 -0.0042682 0.9998852
vn -0.1201938 -0.0352921 0.9921229
vn -0.2216008 -0.0650679 0.9729642
vn -0.3157456 -0.0927113 0.9443036
vn -0.4006867 -0.1176522 0.9086298
vn -0.4755885 -0.1396454 0.8685129
vn -0.5405177 -0.1587103 0.8262273
vn -0.5961435 -0.1750435 0.7835641
vn 0.3474927 -0.6556047 -0.6703964
vn 0.6983850 -0.2506534 0.6703964
vn 0.2544769 -0.5477848 -0.7969776
vn 0.5784250 -0.1739288 0.7969776
vn 0.2364889 -0.4559019 -0.8580364
vn 0.4849173 -0.1692002 0.8580364
vn 0.2507553 -0.3730404 -0.8932876
vn 0.4049296 -0.1951138 0.8932876
vn 0.2822115 -0.2958481 -0.9125955
vn 0.3329997 -0.2372354 0.9125955
vn 0.3237283 -0.2235886 -0.9193520
vn 0.2673841 -0.2886133 0.9193520
vn 0.3713078 -0.1569595 -0.9151471
vn 0.2082045 -0.3451908 0.9151471
vn 0.4226437 -0.0975341 -0.9010324
vn 0.1566898 -0.4044613 0.9010324
vn 0.4767279 -0.0476383 -0.8777591
vn 0.1149989 -0.4650959 0.8777591
vn 0.5339318 -0.0107695 -0.8454590
vn 0.0866463 -0.5269645 0.8454590
vn 0.5965774 0.0068130 -0.8025266
vn 0.0781581 -0.5914747 0.8025266
vn 0.6705732 -0.0093104 -0.7417849
vn 0.1046482 -0.6624227 0.7417849
vn 0.2444981 0.2821658 0.9276870
vn 0.1871913 0.2160302 0.9582747
vn 0.1247975 0.1440240 0.9816734
vn 0.0586757 0.0677154 0.9959778
vn -0.0093011 -0.0107340 0.9998991
vn -0.0769792 -0.0888388 0.9930669
vn -0.1422515 -0.1641670 0.9761218
vn -0.2033678 -0.2346989 0.9505567
vn -0.2591303 -0.2990523 0.9183786
vn -0.3089357 -0.3565309 0.8817281
vn -0.3526937 -0.4070302 0.8425756
vn -0.3906833 -0.4508725 0.8025463
vn 0.6516951 -0.3494970 -0.6731607
vn 0.7237616 0.1517362 0.6731607
vn 0.5141039 -0.3099284 -0.7997760
vn 0.5805960 0.1525343 0.7997760
vn 0.4479352 -0.2451335 -0.8598044
vn 0.4988528 0.1090059 0.8598044
vn 0.4139427 -0.1715348 -0.8939951
vn 0.4455021 0.0479653 0.8939951
vn 0.3977178 -0.0940585 -0.9126739
vn 0.4081067 -0.0218016 0.9126739
vn 0.3929001 -0.0155804 -0.9194492
vn 0.3813744 -0.0957435 0.9194492
vn 0.3965315 0.0615050 -0.9159585
vn 0.3631412 -0.1707294 0.9159585
vn 0.4075421 0.1349424 -0.9031611
vn 0.3530161 -0.2442941 0.9031611
vn 0.4263530 0.2024654 -0.8816070
vn 0.3520417 -0.3143816 0.8816070
vn 0.4551766 0.2614679 -0.8511456
vn 0.3630747 -0.3791146 0.8511456
vn 0.4993629 0.3079863 -0.8098032
vn 0.3923654 -0.4361975 0.8098032
vn 0.5716650 0.3331182 -0.7498209
vn 0.4546583 -0.4806813 0.7498209
vn 0.0504118 0.3506215 0.9351594
vn 0.0384675 0.2675470 0.9627766
vn 0.0255788 0.1779046 0.9837152
vn 0.0120069 0.0835096 0.9964346
vn -0.0019024 -0.0132317 0.9999106
vn -0.0157576 -0.1095962 0.9938513
vn -0.0291744 -0.2029126 0.9787621
vn -0.0418272 -0.2909147 0.9558343
vn -0.0534821 -0.3719759 0.9267004
vn -0.0640074 -0.4451812 0.8931499
vn -0.0733642 -0.5102591 0.8568859
vn -0.0815843 -0.5674313 0.8193691
vn 0.7444603 0.0273606 -0.6671058
vn 0.5081956 0.5447082 0.6671058
vn 0.6082879 -0.0110306 -0.7936398
vn 0.3900075 0.4669368 0.7936398
vn 0.5169174 0.0141916 -0.8559176
vn 0.3492342 0.3813666 0.8559176
vn 0.4463312 0.0659271 -0.8924361
vn 0.3421091 0.2941415 0.8924361
vn 0.3873816 0.1314436 -0.9125010
vn 0.3530195 0.2066862 0.9125010
vn 0.3366306 0.2041744 -0.9192348
vn 0.3747509 0.1207026 0.9192348
vn 0.2932603 0.2798033 -0.9141710
vn 0.4035058 0.0383991 0.9141710
vn 0.2579374 0.3552395 -0.8984838
vn 0.4373852 -0.0376963 0.8984838
vn 0.2325059 0.4283608 -0.8731827
vn 0.4759925 -0.1048005 0.8731827
vn 0.2203780 0.4979329 -0.8387469
vn 0.5206295 -0.1595261 0.8387469
vn 0.2282177 0.5634508 -0.7940025
vn 0.5752785 -0.1965064 0.7940025
vn 0.2715975 0.6243312 -0.7324243
vn 0.6496966 -0.2035903 0.7324243
vn -0.1638726 0.3588310 0.9189048
vn -0.1259554 0.2758037 0.9529258
vn -0.0842333 0.1844453 0.9792266
vn -0.0396808 0.0868888 0.9954274
vn 0.0062934 -0.0137807 0.9998852
vn 0.0520382 -0.1139478 0.9921229
vn 0.0959426 -0.2100851 0.9729642
vn 0.1367029 -0.2993376 0.9443036
vn 0.1734784 -0.3798647 0.9086298
vn 0.2059073 -0.4508741 0.8685129
vn 0.2340186 -0.5124292 0.8262273
vn 0.2581019 -0.5651643 0.7835641
vn 0.5994782 0.4372580 -0.6703964
vn 0.1487116 0.7269481 0.6703964
vn 0.5059933 0.3298446 -0.7969776
vn 0.0898400 0.5972901 0.7969776
vn 0.4176056 0.2989634 -0.8580364
vn 0.0984670 0.5040613 0.8580364
vn 0.3335572 0.3012922 -0.8932876
vn 0.1355003 0.4285755 0.8932876
vn 0.2526740 0.3214425 -0.9125955
vn 0.1874299 0.3633724 0.9125955
vn 0.1752414 0.3522532 -0.9193520
vn 0.2476229 0.3057365 0.9193520
vn 0.1025193 0.3898661 -0.9151471
vn 0.3120466 0.2552111 0.9151471
vn 0.0363929 0.4322224 -0.9010324
vn 0.3780451 0.2126558 0.9010324
vn -0.0206920 0.4786552 -0.8777591
vn 0.4439958 0.1800184 0.8777591
vn -0.0653265 0.5300298 -0.8454590
vn 0.5092697 0.1607592 0.8454590
vn -0.0916455 0.5895355 -0.8025266
vn 0.5743313 0.1615382 0.8025266
vn -0.0862169 0.6650728 -0.7417849
vn 0.6407873 0.1978556 0.7417849
vn -0.3140895 0.2018530 0.9276870
vn -0.2404715 0.1545416 0.9582747
vn -0.1603186 0.1030305 0.9816734
vn -0.0753765 0.0484416 0.9959778
vn 0.0119484 -0.0076788 0.9998991
vn 0.0988898 -0.0635526 0.9930669
vn 0.1827405 -0.1174402 0.9761218
vn 0.2612523 -0.1678966 0.9505567
vn 0.3328865 -0.2139331 0.9183786
vn 0.3968680 -0.2550516 0.8817281
vn 0.4530808 -0.2911773 0.8425756
vn 0.5018833 -0.3225408 0.8025463
f 1//1 2//1 3//1
f 4//2 5//2 6//2
f 7//3 8//3 9//3
f 10//4 11//4 12//4
f 13//5 14//5 15//5
f 16//6 17//6 18//6
f 19//7 20//7 21//7
f 22//8 23//8 24//8
f 25//9 26//9 27//9
f 28//10 29//10 30//10
f 31//11 32//11 33//11
f 34//12 35//12 36//12
f 37//13 38//13 39//13
f 40//14 41//14 42//14
f 43//15 44//15 45//15
f 46//16 47//16 48//16
f 49//17 50//17 51//17
f 52//18 53//18 54//18
f 55//19 56//19 57//19
f 58//20 59//20 60//20
f 61//21 62//21 63//21
f 64//22 65//22 66//22
f 67//23 68//23 69//23
f 70//24 71//24 72//24
f 73//25 74//25 75//25
f 76//26 77//26 78//26
f 79//27 80//27 81//27
f 82//28 83//28 84//28
f 85//29 86//29 87//29
f 88//30 89//30 90//30
f 91//31 92//31 93//31
f 94//32 95//32 96//32
f 97//33 98//33 99//33
f 100//34 101//34 102//34
f 103//35 104//35 105//35
f 106//36 107//36 108//36
f 109//37 110//37 111//37
f 112//38 113//38 114//38
f 115//39 116//39 117//39
f 118//40 119//40 120//40
f 121//41 122//41 123//41
f 124//42 125//42 126//42
f 127//43 128//43 129//43
f 130//44 131//44 132//44
f 133//45 134//45 135//45
f 136//46 137//46 138//46
f 139//47 140//47 141//47
f 142//48 143//48 144//48
f 145//49 146//49 147//49
f 148//50 149//50 150//50
f 151//51 152//51 153//51
f 154//52 155//52 156//52
f 157//53 158//53 159//53
f 160//54 161//54 162//54
f 163//55 164//55 165//55
f 166//56 167//56 168//56
f 169//57 170//57 171//57
f 172//58 173//58 174//58
f 175//59 176//59 177//59
f 178//60 179//60 180//60
f 181//61 182//61 183//61
f 184//62 185//62 186//62
f 187//63 188//63 189//63
f 190//64 191//64 192//64
f 193//65 194//65 195//65
f 196//66 197//66 198//66
f 199//67 200//67 201//67
f 202//68 203//68 204//68
f 205//69 206//69 207//69
f 208//70 209//70 210//70
f 211//71 212//71 213//71
f 214//72 215//72 216//72
f 217//73 218//73 219//73
f 220//74 221//74 222//74
f 223//75 224//75 225//75
f 226//76 227//76 228//76
f 229//77 230//77 231//77
f 232//78 233//78 234//78
f 235//79 236//79 237//79
f 238//80 239//80 240//80
f 241//81 242//81 243//81
f 244//82 245//82 246//82
f 247//83 248//83 249//83
f 250//84 251//84 252//84
f 253//85 254//85 255//85
f 256//86 257//86 258//86
f 259//87 260//87 261//87
f 262//88 263//88 264//88
f 265//89 266//89 267//89
f 268//90 269//90 270//90
f 271//91 272//91 273//91
f 274//92 275//92 276//92
f 277//93 278//93 279//93
f 280//94 281//94 282//94
f 283//95 284//95 285//95
f 286//96 287//96 288//96
f 289//97 290//97 291//97
f 292//98 293//98 294//98
f 295//99 296//99 297//99
f 298//100 299//100 300//100
f 301//101 302//101 303//101
f 304//102 305//102 306//102
f 307//103 308//103 309//103
f 310//104 311//104 312//104
f 313//105 314//105 315//105
f 316//106 317//106 318//106
f 319//107 320//107 321//107
f 322//108 323//108 324//108
f 325//109 326//109 327//109
f 328//110 329//110 330//110
f 331//111 332//111 333//111
f 334//112 335//112 336//112
f 337//113 338//113 339//113
f 340//114 341//114 342//114
f 343//115 344//115 345//115
f 346//116 347//116 348//116
f 349//117 350//117 351//117
f 352//118 353//118 354//118
f 355//119 356//119 357//119
f 358//120 359//120 360//120
f 361//121 362//121 363//121
f 364//122 365//122 366//122
f 367//123 368//123 369//123
f 370//124 371//124 372//124
f 373//125 374//125 375//125
f 376//126 377//126 378//126
f 379//127 380//127 381//127
f 382//128 383//128 384//128
f 385//129 386//129 387//129
f 388//130 389//130 390//130
f 391//131 392//131 393//131
f 394//132 395//132 396//132
f 397//133 398//133 399//133
f 400//134 401//134 402//134
f 403//135 404//135 405//135
f 406//136 407//136 408//136
f 409//137 410//137 411//137
f 412//138 413//138 414//138
f 415//139 416//139 417//139
f 418//140 419//140 420//140
f 421//141 422//141 423//141
f 424//142 425//142 426//142
f 427//143 428//143 429//143
f 430//144 431//144 432//144
f 433//145 434//145 435//145
f 436//146 437//146 438//146
f 439//147 440//147 441//147
f 442//148 443//148 444//148
f 445//149 446//149 447//149
f 448//150 449//150 450//150
f 451//151 452//151 453//151
f 454//152 455//152 456//152
f 457//153 458//153 459//153
f 460//154 461//154 462//154
f 463//155 464//155 465//155
f 466//156 467//156 468//156
f 469//157 470//157 471//157
f 472//158 473//158 474//158
f 475//159 476//159 477//159
f 478//160 479//160 480//160
f 481//161 482//161 483//161
f 484//162 485//162 486//162
f 487//163 488//163 489//163
f 490//164 491//164 492//164
f 493//165 494//165 495//165
f 496//166 497//166 498//166
f 499//167 500//167 501//167
f 502//168 503//168 504//168
f 505//169 506//169 507//169
f 508//170 509//170 510//170
f 511//171 512//171 513//171
f 514//172 515//172 516//172
f 517//173 518//173 519//173
f 520//174 521//174 522//174
f 523//175 524//175 525//175
f 526//176 527//176 528//176
f 529//177 530//177 531//177
f 532//178 533//178 534//178
f 535//179 536//179 537//179
f 538//180 539//180 540//180
f 541//181 542//181 543//181
f 544//182 545//182 546//182
f 547//183 548//183 549//183
f 550//184 551//184 552//184
f 553//185 554//185 555//185
f 556//186 557//186 558//186
f 559//187 560//187 561//187
f 562//188 563//188 564//188
f 565//189 566//189 567//189
f 568//190 569//190 570//190
f 571//191 572//191 573//191
f 574//192 575//192 576//192
f 577//193 578//193 579//193
f 580//194 581//194 582//194
f 583//195 584//195 585//195
f 586//196 587//196 588//196
f 589//197 590//197 591//197
f 592//198 593//198 594//198
f 595//199 596//199 597//199
f 598//200 599//200 600//200
f 601//201 602//201 603//201
f 604//202 605//202 606//202
f 607//203 608//203 609//203
f 610//204 611//204 612//204
f 613//205 614//205 615//205
f 616//206 617//206 618//206
f 619//207 620//207 621//207
f 622//208 623//208 624//208
f 625//209 626//209 627//209
f 628//210 629//210 630//210
f 631//211 632//211 633//211
f 634//212 635//212 636//212
f 637//213 638//213 639//213
f 640//214 641//214 642//214
f 643//215 644//215 645//215
f 646//216 647//216 648//216
f 649//217 650//217 651//217
f 652//218 653//218 654//218
f 655//219 656//219 657//219
f 658//220 659//220 660//220
f 661//221 662//221 663//221
f 664//222 665//222 666//222
f 667//223 668//223 669//223
f 670//224 671//224 672//224
f 673//225 674//225 675//225
f 676//226 677//226 678//226
f 679//227 680//227 681//227
f 682//228 683//228 684//228
f 685//229 686//229 687//229
f 688//230 689//230 690//230
f 691//231 692//231 693//231
f 694//232 695//232 696//232
f 697//233 698//233 699//233
f 700//234 701//234 702//234
f 703//235 704//235 705//235
f 706//236 707//236 708//236
f 709//237 710//237 711//237
f 712//238 713//238 714//238
f 715//239 716//239 717//239
f 718//240 719//240 720//240
f 721//241 722//241 723//241
f 724//242 725//242 726//242
f 727//243 728//243 729//243
f 730//244 731//244 732//244
f 733//245 734//245 735//245
f 736//246 737//246 738//246
f 739//247 740//247 741//247
f 742//248 743//248 744//248
f 745//249 746//249 747//249
f 748//250 749//250 750//250
f 751//251 752//251 753//251
f 754//252 755//252 756//252
f 757//253 758//253 759//253
f 760//254 761//254 762//254
f 763//255 764//255 765//255
f 766//256 767//256 768//256
f 769//257 770//257 771//257
f 772//258 773//258 774//258
f 775//259 776//259 777//259
f 778//260 779//260 780//260
f 781//261 782//261 783//261
f 784//262 785//262 786//262
f 787//263 788//263 789//263
f 790//264 791//264 792//264
f 793//265 794//265 795//265
f 796//266 797//266 798//266
f 799//267 800//267 801//267
f 802//268 803//268 804//268
f 805//269 806//269 807//269
f 808//270 809//270 810//270
f 811//271 812//271 813//271
f 814//272 815//272 816//272
f 817//273 818//273 819//273
f 820//274 821//274 822//274
f 823//275 824//275 825//275
f 826//276 827//276 828//276
f 829//277 830//277 831//277
f 832//278 833//278 834//278
f 835//279 836//279 837//279
f 838//280 839//280 840//280
f 841//281 842//281 843//281
f 844//282 845//282 846//282
f 847//283 848//283 849//283
f 850//284 851//284 852//284
f 853//285 854//285 855//285
f 856//286 857//286 858//286
f 859//287 860//287 861//287
f 862//288 863//288 864//288
f 865//289 866//289 867//289
f 868//290 869//290 870//290
f 871//291 872//291 873//291
f 874//292 875//292 876//292
f 877//293 878//293 879//293
f 880//294 881//294 882//294
f 883//295 884//295 885//295
f 886//296 887//296 888//296
f 889//297 890//297 891//297
f 892//298 893//298 894//298
f 895//299 896//299 897//299
f 898//300 899//300 900//300
f 901//301 902//301 903//301
f 904//302 905//302 906//302
f 907//303 908//303 909//303
f 910//304 911//304 912//304
f 913//305 914//305 915//305
f 916//306 917//306 918//306
f 919//307 920//307 921//307
f 922//308 923//308 924//308
f 925//309 926//309 927//309
f 928//310 929//310 930//310
f 931//311 932//311 933//311
f 934//312 935//312 936//312
f 937//313 938//313 939//313
f 940//314 941//314 942//314
f 943//315 944//315 945//315
f 946//316 947//316 948//316
f 949//317 950//317 951//317
f 952//318 953//318 954//318
f 955//319 956//319 957//319
f 958//320 959//320 960//320
f 961//321 962//321 963//321
f 964//322 965//322 966//322
f 967//323 968//323 969//323
f 970//324 971//324 972//324
f 973//325 974//325 975//325
f 976//326 977//326 978//326
f 979//327 980//327 981//327
f 982//328 983//328 984//328
f 985//329 986//329 987//329
f 988//330 989//330 990//330
f 991//331 992//331 993//331
f 994//332 995//332 996//332
f 997//333 998//333 999//333
f 1000//334 1001//334 1002//334
f 1003//335 1004//335 1005//335
f 1006//336 1007//336 1008//336
f 1009//337 1010//337 1011//337
f 1012//338 1013//338 1014//338
f 1015//339 1016//339 1017//339
f 1018//340 1019//340 1020//340
f 1021//341 1022//341 1023//341
f 1024//342 1025//342 1026//342
f 1027//343 1028//343 1029//343
f 1030//344 1031//344 1032//344
f 1033//345 1034//345 1035//345
f 1036//346 1037//346 1038//346
f 1039//347 1040//347 1041//347
f 1042//348 1043//348 1044//348
f 1045//349 1046//349 1047//349
f 1048//350 1049//350 1050//350
f 1051//351 1052//351 1053//351
f 1054//352 1055//352 1056//352
f 1057//353 1058//353 1059//353
f 1060//354 1061//354 1062//354
f 1063//355 1064//355 1065//355
f 1066//356 1067//356 1068//356
f 1069//357 1070//357 1071//357
f 1072//358 1073//358 1074//358
f 1075//359 1076//359 1077//359
f 1078//360 1079//360 1080//360
f 1081//361 1082//361 1083//361
f 1084//362 1085//362 1086//362
f 1087//363 1088//363 1089//363
f 1090//364 1091//364 1092//364
f 1093//365 1094//365 1095//365
f 1096//366 1097//366 1098//366
f 1099//367 1100//367 1101//367
f 1102//368 1103//368 1104//368
f 1105//369 1106//369 1107//369
f 1108//370 1109//370 1110//370
f 1111//371 1112//371 1113//371
f 1114//372 1115//372 1116//372
f 1117//373 1118//373 1119//373
f 1120//374 1121//374 1122//374
f 1123//375 1124//375 1125//375
f 1126//376 1127//376 1128//376
f 1129//377 1130//377 1131//377
f 1132//378 1133//378 1134//378
f 1135//379 1136//379 1137//379
f 1138//380 1139//380 1140//380
f 1141//381 1142//381 1143//381
f 1144//382 1145//382 1146//382
f 1147//383 1148//383 1149//383
f 1150//384 1151//384 1152//384
f 1153//385 1154//385 1155//385
f 1156//386 1157//386 1158//386
f 1159//387 1160//387 1161//387
f 1162//388 1163//388 1164//388
f 1165//389 1166//389 1167//389
f 1168//390 1169//390 1170//390
f 1171//391 1172//391 1173//391
f 1174//392 1175//392 1176//392
f 1177//393 1178//393 1179//393
f 1180//394 1181//394 1182//394
f 1183//395 1184//395 1185//395
f 1186//396 1187//396 1188//396
