# Original FleetScope procedural palm, metres, Z up
mtllib trunk.mtl
o trunk
usemtl surface
v 0.28500 0.00000 0.00000
v 0.23057 0.16752 0.00000
v 0.08807 0.27105 0.00000
v -0.08807 0.27105 0.00000
v -0.23057 0.16752 0.00000
v -0.28500 0.00000 0.00000
v -0.23057 -0.16752 0.00000
v -0.08807 -0.27105 0.00000
v 0.08807 -0.27105 0.00000
v 0.23057 -0.16752 0.00000
v 0.25586 0.00000 0.25000
v 0.20706 0.15021 0.25000
v 0.07928 0.24305 0.25000
v -0.07866 0.24305 0.25000
v -0.20644 0.15021 0.25000
v -0.25525 0.00000 0.25000
v -0.20644 -0.15021 0.25000
v -0.07866 -0.24305 0.25000
v 0.07928 -0.24305 0.25000
v 0.20706 -0.15021 0.25000
v 0.27735 0.00000 0.50000
v 0.22461 0.16229 0.50000
v 0.08656 0.26260 0.50000
v -0.08409 0.26260 0.50000
v -0.22214 0.16229 0.50000
v -0.27488 0.00000 0.50000
v -0.22214 -0.16229 0.50000
v -0.08409 -0.26260 0.50000
v 0.08656 -0.26260 0.50000
v 0.22461 -0.16229 0.50000
v 0.24944 0.00000 0.75000
v 0.20234 0.14499 0.75000
v 0.07900 0.23459 0.75000
v -0.07345 0.23459 0.75000
v -0.19678 0.14499 0.75000
v -0.24389 0.00000 0.75000
v -0.19678 -0.14499 0.75000
v -0.07345 -0.23459 0.75000
v 0.07900 -0.23459 0.75000
v 0.20234 -0.14499 0.75000
v 0.27216 0.00000 1.00000
v 0.22113 0.15707 1.00000
v 0.08751 0.25414 1.00000
v -0.07764 0.25414 1.00000
v -0.21125 0.15707 1.00000
v -0.26228 0.00000 1.00000
v -0.21125 -0.15707 1.00000
v -0.07764 -0.25414 1.00000
v 0.08751 -0.25414 1.00000
v 0.22113 -0.15707 1.00000
v 0.24549 0.00000 1.25000
v 0.20008 0.13976 1.25000
v 0.08119 0.22614 1.25000
v -0.06576 0.22614 1.25000
v -0.18465 0.13976 1.25000
v -0.23006 0.00000 1.25000
v -0.18465 -0.13976 1.25000
v -0.06576 -0.22614 1.25000
v 0.08119 -0.22614 1.25000
v 0.20008 -0.13976 1.25000
v 0.26944 0.00000 1.50000
v 0.22011 0.15184 1.50000
v 0.09094 0.24569 1.50000
v -0.06872 0.24569 1.50000
v -0.19788 0.15184 1.50000
v -0.24722 0.00000 1.50000
v -0.19788 -0.15184 1.50000
v -0.06872 -0.24569 1.50000
v 0.09094 -0.24569 1.50000
v 0.22011 -0.15184 1.50000
v 0.24401 0.00000 1.75000
v 0.20030 0.13454 1.75000
v 0.08585 0.21769 1.75000
v -0.05561 0.21769 1.75000
v -0.17005 0.13454 1.75000
v -0.21377 0.00000 1.75000
v -0.17005 -0.13454 1.75000
v -0.05561 -0.21769 1.75000
v 0.08585 -0.21769 1.75000
v 0.20030 -0.13454 1.75000
v 0.26920 0.00000 2.00000
v 0.22156 0.14662 2.00000
v 0.09684 0.23724 2.00000
v -0.05733 0.23724 2.00000
v -0.18205 0.14662 2.00000
v -0.22969 0.00000 2.00000
v -0.18205 -0.14662 2.00000
v -0.05733 -0.23724 2.00000
v 0.09684 -0.23724 2.00000
v 0.22156 -0.14662 2.00000
v 0.24500 0.00000 2.25000
v 0.20298 0.12931 2.25000
v 0.09298 0.20923 2.25000
v -0.04298 0.20923 2.25000
v -0.15298 0.12931 2.25000
v -0.19500 0.00000 2.25000
v -0.15298 -0.12931 2.25000
v -0.04298 -0.20923 2.25000
v 0.09298 -0.20923 2.25000
v 0.20298 -0.12931 2.25000
v 0.27142 0.00000 2.50000
v 0.22548 0.14140 2.50000
v 0.10520 0.22878 2.50000
v -0.04347 0.22878 2.50000
v -0.16375 0.14140 2.50000
v -0.20969 0.00000 2.50000
v -0.16375 -0.14140 2.50000
v -0.04347 -0.22878 2.50000
v 0.10520 -0.22878 2.50000
v 0.22548 -0.14140 2.50000
v 0.24846 0.00000 2.75000
v 0.20814 0.12409 2.75000
v 0.10258 0.20078 2.75000
v -0.02789 0.20078 2.75000
v -0.13345 0.12409 2.75000
v -0.17377 0.00000 2.75000
v -0.13345 -0.12409 2.75000
v -0.02789 -0.20078 2.75000
v 0.10258 -0.20078 2.75000
v 0.20814 -0.12409 2.75000
v 0.27611 0.00000 3.00000
v 0.23187 0.13617 3.00000
v 0.11603 0.22033 3.00000
v -0.02714 0.22033 3.00000
v -0.14298 0.13617 3.00000
v -0.18722 0.00000 3.00000
v -0.14298 -0.13617 3.00000
v -0.02714 -0.22033 3.00000
v 0.11603 -0.22033 3.00000
v 0.23187 -0.13617 3.00000
v 0.25438 0.00000 3.25000
v 0.21576 0.11886 3.25000
v 0.11465 0.19232 3.25000
v -0.01033 0.19232 3.25000
v -0.11144 0.11886 3.25000
v -0.15006 0.00000 3.25000
v -0.11144 -0.11886 3.25000
v -0.01033 -0.19232 3.25000
v 0.11465 -0.19232 3.25000
v 0.21576 -0.11886 3.25000
v 0.28327 0.00000 3.50000
v 0.24072 0.13095 3.50000
v 0.12934 0.21187 3.50000
v -0.00835 0.21187 3.50000
v -0.11974 0.13095 3.50000
v -0.16228 0.00000 3.50000
v -0.11974 -0.13095 3.50000
v -0.00835 -0.21187 3.50000
v 0.12934 -0.21187 3.50000
v 0.24072 -0.13095 3.50000
v 0.26278 0.00000 3.75000
v 0.22585 0.11364 3.75000
v 0.12919 0.18387 3.75000
v 0.00970 0.18387 3.75000
v -0.08697 0.11364 3.75000
v -0.12389 0.00000 3.75000
v -0.08697 -0.11364 3.75000
v 0.00970 -0.18387 3.75000
v 0.12919 -0.18387 3.75000
v 0.22585 -0.11364 3.75000
v 0.29290 0.00000 4.00000
v 0.25205 0.12572 4.00000
v 0.14511 0.20342 4.00000
v 0.01292 0.20342 4.00000
v -0.09403 0.12572 4.00000
v -0.13488 0.00000 4.00000
v -0.09403 -0.12572 4.00000
v 0.01292 -0.20342 4.00000
v 0.14511 -0.20342 4.00000
v 0.25205 -0.12572 4.00000
v 0.27364 0.00000 4.25000
v 0.23842 0.10841 4.25000
v 0.14619 0.17542 4.25000
v 0.03220 0.17542 4.25000
v -0.06002 0.10841 4.25000
v -0.09525 0.00000 4.25000
v -0.06002 -0.10841 4.25000
v 0.03220 -0.17542 4.25000
v 0.14619 -0.17542 4.25000
v 0.23842 -0.10841 4.25000
v 0.30500 0.00000 4.50000
v 0.26585 0.12050 4.50000
v 0.16335 0.19497 4.50000
v 0.03665 0.19497 4.50000
v -0.06585 0.12050 4.50000
v -0.10500 0.00000 4.50000
v -0.06585 -0.12050 4.50000
v 0.03665 -0.19497 4.50000
v 0.16335 -0.19497 4.50000
v 0.26585 -0.12050 4.50000
vn 0.9452678 0.3071361 0.1101645
vn 0.9452678 0.3071361 0.1101645
vn 0.5841789 0.8040532 0.1106049
vn 0.5841789 0.8040532 0.1106049
vn 0.0000000 0.9937849 0.1113172
vn 0.0000000 0.9937849 0.1113172
vn -0.5840851 0.8039242 0.1120293
vn -0.5840851 0.8039242 0.1120293
vn -0.9450223 0.3070563 0.1124693
vn -0.9450223 0.3070563 0.1124693
vn -0.9450223 -0.3070563 0.1124693
vn -0.9450223 -0.3070563 0.1124693
vn -0.5840851 -0.8039242 0.1120293
vn -0.5840851 -0.8039242 0.1120293
vn -0.0000000 -0.9937849 0.1113172
vn -0.0000000 -0.9937849 0.1113172
vn 0.5841789 -0.8040532 0.1106049
vn 0.5841789 -0.8040532 0.1106049
vn 0.9452678 -0.3071361 0.1101645
vn 0.9452678 -0.3071361 0.1101645
vn 0.9478966 0.3079903 -0.0814489
vn 0.9478966 0.3079903 -0.0814489
vn 0.5858958 0.8064164 -0.0801166
vn 0.5858958 0.8064164 -0.0801166
vn 0.0000000 0.9969565 -0.0779600
vn 0.0000000 0.9969565 -0.0779600
vn -0.5860941 0.8066893 -0.0758023
vn -0.5860941 0.8066893 -0.0758023
vn -0.9484158 0.3081590 -0.0744682
vn -0.9484158 0.3081590 -0.0744682
vn -0.9484158 -0.3081590 -0.0744682
vn -0.9484158 -0.3081590 -0.0744682
vn -0.5860941 -0.8066893 -0.0758023
vn -0.5860941 -0.8066893 -0.0758023
vn -0.0000000 -0.9969565 -0.0779600
vn -0.0000000 -0.9969565 -0.0779600
vn 0.5858958 -0.8064164 -0.0801166
vn 0.5858958 -0.8064164 -0.0801166
vn 0.9478966 -0.3079903 -0.0814489
vn 0.9478966 -0.3079903 -0.0814489
vn 0.9457439 0.3072908 0.1055497
vn 0.9457439 0.3072908 0.1055497
vn 0.5843629 0.8043066 0.1077540
vn 0.5843629 0.8043066 0.1077540
vn 0.0000000 0.9937849 0.1113172
vn 0.0000000 0.9937849 0.1113172
vn -0.5838940 0.8036612 0.1148761
vn -0.5838940 0.8036612 0.1148761
vn -0.9445164 0.3068920 0.1170734
vn -0.9445164 0.3068920 0.1170734
vn -0.9445164 -0.3068920 0.1170734
vn -0.9445164 -0.3068920 0.1170734
vn -0.5838940 -0.8036612 0.1148761
vn -0.5838940 -0.8036612 0.1148761
vn -0.0000000 -0.9937849 0.1113172
vn -0.0000000 -0.9937849 0.1113172
vn 0.5843629 -0.8043066 0.1077540
vn 0.5843629 -0.8043066 0.1077540
vn 0.9457439 -0.3072908 0.1055497
vn 0.9457439 -0.3072908 0.1055497
vn 0.9475251 0.3078696 -0.0860961
vn 0.9475251 0.3078696 -0.0860961
vn 0.5857576 0.8062262 -0.0829903
vn 0.5857576 0.8062262 -0.0829903
vn 0.0000000 0.9969565 -0.0779600
vn 0.0000000 0.9969565 -0.0779600
vn -0.5862203 0.8068630 -0.0729237
vn -0.5862203 0.8068630 -0.0729237
vn -0.9487363 0.3082631 -0.0698083
vn -0.9487363 0.3082631 -0.0698083
vn -0.9487363 -0.3082631 -0.0698083
vn -0.9487363 -0.3082631 -0.0698083
vn -0.5862203 -0.8068630 -0.0729237
vn -0.5862203 -0.8068630 -0.0729237
vn -0.0000000 -0.9969565 -0.0779600
vn -0.0000000 -0.9969565 -0.0779600
vn 0.5857576 -0.8062262 -0.0829903
vn 0.5857576 -0.8062262 -0.0829903
vn 0.9475251 -0.3078696 -0.0860961
vn 0.9475251 -0.3078696 -0.0860961
vn 0.9462002 0.3074391 0.1009280
vn 0.9462002 0.3074391 0.1009280
vn 0.5845423 0.8045534 0.1049004
vn 0.5845423 0.8045534 0.1049004
vn 0.0000000 0.9937849 0.1113172
vn 0.0000000 0.9937849 0.1113172
vn -0.5836983 0.8033918 0.1177200
vn -0.5836983 0.8033918 0.1177200
vn -0.9439908 0.3067212 0.1216699
vn -0.9439908 0.3067212 0.1216699
vn -0.9439908 -0.3067212 0.1216699
vn -0.9439908 -0.3067212 0.1216699
vn -0.5836983 -0.8033918 0.1177200
vn -0.5836983 -0.8033918 0.1177200
vn -0.0000000 -0.9937849 0.1113172
vn -0.0000000 -0.9937849 0.1113172
vn 0.5845423 -0.8045534 0.1049004
vn 0.5845423 -0.8045534 0.1049004
vn 0.9462002 -0.3074391 0.1009280
vn 0.9462002 -0.3074391 0.1009280
vn 0.9471332 0.3077422 -0.0907377
vn 0.9471332 0.3077422 -0.0907377
vn 0.5856146 0.8060293 -0.0858620
vn 0.5856146 0.8060293 -0.0858620
vn 0.0000000 0.9969565 -0.0779600
vn 0.0000000 0.9969565 -0.0779600
vn -0.5863416 0.8070300 -0.0700433
vn -0.5863416 0.8070300 -0.0700433
vn -0.9490364 0.3083606 -0.0651437
vn -0.9490364 0.3083606 -0.0651437
vn -0.9490364 -0.3083606 -0.0651437
vn -0.9490364 -0.3083606 -0.0651437
vn -0.5863416 -0.8070300 -0.0700433
vn -0.5863416 -0.8070300 -0.0700433
vn -0.0000000 -0.9969565 -0.0779600
vn -0.0000000 -0.9969565 -0.0779600
vn 0.5856146 -0.8060293 -0.0858620
vn 0.5856146 -0.8060293 -0.0858620
vn 0.9471332 -0.3077422 -0.0907377
vn 0.9471332 -0.3077422 -0.0907377
vn 0.9466364 0.3075808 0.0962998
vn 0.9466364 0.3075808 0.0962998
vn 0.5847169 0.8047938 0.1020443
vn 0.5847169 0.8047938 0.1020443
vn 0.0000000 0.9937849 0.1113172
vn 0.0000000 0.9937849 0.1113172
vn -0.5834979 0.8031160 0.1205611
vn -0.5834979 0.8031160 0.1205611
vn -0.9434456 0.3065440 0.1262586
vn -0.9434456 0.3065440 0.1262586
vn -0.9434456 -0.3065440 0.1262586
vn -0.9434456 -0.3065440 0.1262586
vn -0.5834979 -0.8031160 0.1205611
vn -0.5834979 -0.8031160 0.1205611
vn -0.0000000 -0.9937849 0.1113172
vn -0.0000000 -0.9937849 0.1113172
vn 0.5847169 -0.8047938 0.1020443
vn 0.5847169 -0.8047938 0.1020443
vn 0.9466364 -0.3075808 0.0962998
vn 0.9466364 -0.3075808 0.0962998
vn 0.9467212 0.3076084 -0.0953734
vn 0.9467212 0.3076084 -0.0953734
vn 0.5854668 0.8058259 -0.0887315
vn 0.5854668 0.8058259 -0.0887315
vn 0.0000000 0.9969565 -0.0779600
vn 0.0000000 0.9969565 -0.0779600
vn -0.5864581 0.8071904 -0.0671611
vn -0.5864581 0.8071904 -0.0671611
vn -0.9493158 0.3084514 -0.0604749
vn -0.9493158 0.3084514 -0.0604749
vn -0.9493158 -0.3084514 -0.0604749
vn -0.9493158 -0.3084514 -0.0604749
vn -0.5864581 -0.8071904 -0.0671611
vn -0.5864581 -0.8071904 -0.0671611
vn -0.0000000 -0.9969565 -0.0779600
vn -0.0000000 -0.9969565 -0.0779600
vn 0.5854668 -0.8058259 -0.0887315
vn 0.5854668 -0.8058259 -0.0887315
vn 0.9467212 -0.3076084 -0.0953734
vn 0.9467212 -0.3076084 -0.0953734
vn 0.9470524 0.3077160 0.0916653
vn 0.9470524 0.3077160 0.0916653
vn 0.5848869 0.8050277 0.0991856
vn 0.5848869 0.8050277 0.0991856
vn 0.0000000 0.9937849 0.1113172
vn 0.0000000 0.9937849 0.1113172
vn -0.5832929 0.8028338 0.1233992
vn -0.5832929 0.8028338 0.1233992
vn -0.9428808 0.3063606 0.1308393
vn -0.9428808 0.3063606 0.1308393
vn -0.9428808 -0.3063606 0.1308393
vn -0.9428808 -0.3063606 0.1308393
vn -0.5832929 -0.8028338 0.1233992
vn -0.5832929 -0.8028338 0.1233992
vn -0.0000000 -0.9937849 0.1113172
vn 0.0000000 -0.9937849 0.1113172
vn 0.5848869 -0.8050277 0.0991856
vn 0.5848869 -0.8050277 0.0991856
vn 0.9470524 -0.3077160 0.0916653
vn 0.9470524 -0.3077160 0.0916653
vn 0.9462890 0.3074679 -0.1000029
vn 0.9462890 0.3074679 -0.1000029
vn 0.5853142 0.8056159 -0.0915988
vn 0.5853142 0.8056159 -0.0915988
vn 0.0000000 0.9969565 -0.0779600
vn 0.0000000 0.9969565 -0.0779600
vn -0.5865698 0.8073440 -0.0642772
vn -0.5865698 0.8073440 -0.0642772
vn -0.9495746 0.3085355 -0.0558022
vn -0.9495746 0.3085355 -0.0558022
vn -0.9495746 -0.3085355 -0.0558022
vn -0.9495746 -0.3085355 -0.0558022
vn -0.5865698 -0.8073440 -0.0642772
vn -0.5865698 -0.8073440 -0.0642772
vn 0.0000000 -0.9969565 -0.0779600
vn -0.0000000 -0.9969565 -0.0779600
vn 0.5853142 -0.8056159 -0.0915988
vn 0.5853142 -0.8056159 -0.0915988
vn 0.9462890 -0.3074679 -0.1000029
vn 0.9462890 -0.3074679 -0.1000029
vn 0.9474483 0.3078446 0.0870249
vn 0.9474483 0.3078446 0.0870249
vn 0.5850520 0.8052551 0.0963244
vn 0.5850520 0.8052551 0.0963244
vn 0.0000000 0.9937849 0.1113172
vn 0.0000000 0.9937849 0.1113172
vn -0.5830832 0.8025452 0.1262342
vn -0.5830832 0.8025452 0.1262342
vn -0.9422968 0.3061708 0.1354115
vn -0.9422968 0.3061708 0.1354115
vn -0.9422968 -0.3061708 0.1354115
vn -0.9422968 -0.3061708 0.1354115
vn -0.5830832 -0.8025452 0.1262342
vn -0.5830832 -0.8025452 0.1262342
vn -0.0000000 -0.9937849 0.1113172
vn 0.0000000 -0.9937849 0.1113172
vn 0.5850520 -0.8052551 0.0963244
vn 0.5850520 -0.8052551 0.0963244
vn 0.9474483 -0.3078446 0.0870249
vn 0.9474483 -0.3078446 0.0870249
vn 0.9458368 0.3073210 -0.1046259
vn 0.9458368 0.3073210 -0.1046259
vn 0.5851568 0.8053993 -0.0944639
vn 0.5851568 0.8053993 -0.0944639
vn 0.0000000 0.9969565 -0.0779600
vn 0.0000000 0.9969565 -0.0779600
vn -0.5866765 0.8074910 -0.0613918
vn -0.5866765 0.8074910 -0.0613918
vn -0.9498127 0.3086129 -0.0511257
vn -0.9498127 0.3086129 -0.0511257
vn -0.9498127 -0.3086129 -0.0511257
vn -0.9498127 -0.3086129 -0.0511257
vn -0.5866765 -0.8074910 -0.0613918
vn -0.5866765 -0.8074910 -0.0613918
vn 0.0000000 -0.9969565 -0.0779600
vn 0.0000000 -0.9969565 -0.0779600
vn 0.5851568 -0.8053993 -0.0944639
vn 0.5851568 -0.8053993 -0.0944639
vn 0.9458368 -0.3073210 -0.1046259
vn 0.9458368 -0.3073210 -0.1046259
vn 0.9478240 0.3079667 0.0823788
vn 0.9478240 0.3079667 0.0823788
vn 0.5852125 0.8054759 0.0934609
vn 0.5852125 0.8054759 0.0934609
vn 0.0000000 0.9937849 0.1113172
vn 0.0000000 0.9937849 0.1113172
vn -0.5828690 0.8022504 0.1290662
vn -0.5828690 0.8022504 0.1290662
vn -0.9416934 0.3059747 0.1399752
vn -0.9416934 0.3059747 0.1399752
vn -0.9416934 -0.3059747 0.1399752
vn -0.9416934 -0.3059747 0.1399752
vn -0.5828690 -0.8022504 0.1290662
vn -0.5828690 -0.8022504 0.1290662
vn 0.0000000 -0.9937849 0.1113172
vn 0.0000000 -0.9937849 0.1113172
vn 0.5852125 -0.8054759 0.0934609
vn 0.5852125 -0.8054759 0.0934609
vn 0.9478240 -0.3079667 0.0823788
vn 0.9478240 -0.3079667 0.0823788
vn 0.9453646 0.3071676 -0.1092421
vn 0.9453646 0.3071676 -0.1092421
vn 0.5849947 0.8051762 -0.0973266
vn 0.5849947 0.8051762 -0.0973266
vn 0.0000000 0.9969565 -0.0779600
vn 0.0000000 0.9969565 -0.0779600
vn -0.5867785 0.8076313 -0.0585048
vn -0.5867785 0.8076313 -0.0585048
vn -0.9500301 0.3086835 -0.0464459
vn -0.9500301 0.3086835 -0.0464459
vn -0.9500301 -0.3086835 -0.0464459
vn -0.9500301 -0.3086835 -0.0464459
vn -0.5867785 -0.8076313 -0.0585048
vn -0.5867785 -0.8076313 -0.0585048
vn 0.0000000 -0.9969565 -0.0779600
vn -0.0000000 -0.9969565 -0.0779600
vn 0.5849947 -0.8051762 -0.0973266
vn 0.5849947 -0.8051762 -0.0973266
vn 0.9453646 -0.3071676 -0.1092421
vn 0.9453646 -0.3071676 -0.1092421
vn 0.9481792 0.3080821 0.0777273
vn 0.9481792 0.3080821 0.0777273
vn 0.5853682 0.8056902 0.0905951
vn 0.5853682 0.8056902 0.0905951
vn 0.0000000 0.9937849 0.1113172
vn 0.0000000 0.9937849 0.1113172
vn -0.5826502 0.8019492 0.1318951
vn -0.5826502 0.8019492 0.1318951
vn -0.9410708 0.3057725 0.1445299
vn -0.9410708 0.3057725 0.1445299
vn -0.9410708 -0.3057725 0.1445299
vn -0.9410708 -0.3057725 0.1445299
vn -0.5826502 -0.8019492 0.1318951
vn -0.5826502 -0.8019492 0.1318951
vn -0.0000000 -0.9937849 0.1113172
vn 0.0000000 -0.9937849 0.1113172
vn 0.5853682 -0.8056902 0.0905951
vn 0.5853682 -0.8056902 0.0905951
vn 0.9481792 -0.3080821 0.0777273
vn 0.9481792 -0.3080821 0.0777273
vn 0.9448726 0.3070077 -0.1138513
vn 0.9448726 0.3070077 -0.1138513
vn 0.5848279 0.8049465 -0.1001868
vn 0.5848279 0.8049465 -0.1001868
vn 0.0000000 0.9969565 -0.0779600
vn 0.0000000 0.9969565 -0.0779600
vn -0.5868755 0.8077648 -0.0556163
vn -0.5868755 0.8077648 -0.0556163
vn -0.9502268 0.3087474 -0.0417631
vn -0.9502268 0.3087474 -0.0417631
vn -0.9502268 -0.3087474 -0.0417631
vn -0.9502268 -0.3087474 -0.0417631
vn -0.5868755 -0.8077648 -0.0556163
vn -0.5868755 -0.8077648 -0.0556163
vn 0.0000000 -0.9969565 -0.0779600
vn -0.0000000 -0.9969565 -0.0779600
vn 0.5848279 -0.8049465 -0.1001868
vn 0.5848279 -0.8049465 -0.1001868
vn 0.9448726 -0.3070077 -0.1138513
vn 0.9448726 -0.3070077 -0.1138513
vn 0.9485141 0.3081909 0.0730707
vn 0.9485141 0.3081909 0.0730707
vn 0.5855191 0.8058979 0.0877270
vn 0.5855191 0.8058979 0.0877270
vn 0.0000000 0.9937849 0.1113172
vn 0.0000000 0.9937849 0.1113172
vn -0.5824268 0.8016417 0.1347207
vn -0.5824268 0.8016417 0.1347207
vn -0.9404292 0.3055640 0.1490755
vn -0.9404292 0.3055640 0.1490755
vn -0.9404292 -0.3055640 0.1490755
vn -0.9404292 -0.3055640 0.1490755
vn -0.5824268 -0.8016417 0.1347207
vn -0.5824268 -0.8016417 0.1347207
vn -0.0000000 -0.9937849 0.1113172
vn -0.0000000 -0.9937849 0.1113172
vn 0.5855191 -0.8058979 0.0877270
vn 0.5855191 -0.8058979 0.0877270
vn 0.9485141 -0.3081909 0.0730707
vn 0.9485141 -0.3081909 0.0730707
vn 0.9443607 0.3068414 -0.1184531
vn 0.9443607 0.3068414 -0.1184531
vn 0.5846563 0.8047104 -0.1030446
vn 0.5846563 0.8047104 -0.1030446
vn 0.0000000 0.9969565 -0.0779600
vn 0.0000000 0.9969565 -0.0779600
vn -0.5869676 0.8078916 -0.0527264
vn -0.5869676 0.8078916 -0.0527264
vn -0.9504026 0.3088045 -0.0370774
vn -0.9504026 0.3088045 -0.0370774
vn -0.9504026 -0.3088045 -0.0370774
vn -0.9504026 -0.3088045 -0.0370774
vn -0.5869676 -0.8078916 -0.0527264
vn -0.5869676 -0.8078916 -0.0527264
vn -0.0000000 -0.9969565 -0.0779600
vn -0.0000000 -0.9969565 -0.0779600
vn 0.5846563 -0.8047104 -0.1030446
vn 0.5846563 -0.8047104 -0.1030446
vn 0.9443607 -0.3068414 -0.1184531
vn 0.9443607 -0.3068414 -0.1184531
f 1//1 2//1 12//1
f 1//2 12//2 11//2
f 2//3 3//3 13//3
f 2//4 13//4 12//4
f 3//5 4//5 14//5
f 3//6 14//6 13//6
f 4//7 5//7 15//7
f 4//8 15//8 14//8
f 5//9 6//9 16//9
f 5//10 16//10 15//10
f 6//11 7//11 17//11
f 6//12 17//12 16//12
f 7//13 8//13 18//13
f 7//14 18//14 17//14
f 8//15 9//15 19//15
f 8//16 19//16 18//16
f 9//17 10//17 20//17
f 9//18 20//18 19//18
f 10//19 1//19 11//19
f 10//20 11//20 20//20
f 11//21 12//21 22//21
f 11//22 22//22 21//22
f 12//23 13//23 23//23
f 12//24 23//24 22//24
f 13//25 14//25 24//25
f 13//26 24//26 23//26
f 14//27 15//27 25//27
f 14//28 25//28 24//28
f 15//29 16//29 26//29
f 15//30 26//30 25//30
f 16//31 17//31 27//31
f 16//32 27//32 26//32
f 17//33 18//33 28//33
f 17//34 28//34 27//34
f 18//35 19//35 29//35
f 18//36 29//36 28//36
f 19//37 20//37 30//37
f 19//38 30//38 29//38
f 20//39 11//39 21//39
f 20//40 21//40 30//40
f 21//41 22//41 32//41
f 21//42 32//42 31//42
f 22//43 23//43 33//43
f 22//44 33//44 32//44
f 23//45 24//45 34//45
f 23//46 34//46 33//46
f 24//47 25//47 35//47
f 24//48 35//48 34//48
f 25//49 26//49 36//49
f 25//50 36//50 35//50
f 26//51 27//51 37//51
f 26//52 37//52 36//52
f 27//53 28//53 38//53
f 27//54 38//54 37//54
f 28//55 29//55 39//55
f 28//56 39//56 38//56
f 29//57 30//57 40//57
f 29//58 40//58 39//58
f 30//59 21//59 31//59
f 30//60 31//60 40//60
f 31//61 32//61 42//61
f 31//62 42//62 41//62
f 32//63 33//63 43//63
f 32//64 43//64 42//64
f 33//65 34//65 44//65
f 33//66 44//66 43//66
f 34//67 35//67 45//67
f 34//68 45//68 44//68
f 35//69 36//69 46//69
f 35//70 46//70 45//70
f 36//71 37//71 47//71
f 36//72 47//72 46//72
f 37//73 38//73 48//73
f 37//74 48//74 47//74
f 38//75 39//75 49//75
f 38//76 49//76 48//76
f 39//77 40//77 50//77
f 39//78 50//78 49//78
f 40//79 31//79 41//79
f 40//80 41//80 50//80
f 41//81 42//81 52//81
f 41//82 52//82 51//82
f 42//83 43//83 53//83
f 42//84 53//84 52//84
f 43//85 44//85 54//85
f 43//86 54//86 53//86
f 44//87 45//87 55//87
f 44//88 55//88 54//88
f 45//89 46//89 56//89
f 45//90 56//90 55//90
f 46//91 47//91 57//91
f 46//92 57//92 56//92
f 47//93 48//93 58//93
f 47//94 58//94 57//94
f 48//95 49//95 59//95
f 48//96 59//96 58//96
f 49//97 50//97 60//97
f 49//98 60//98 59//98
f 50//99 41//99 51//99
f 50//100 51//100 60//100
f 51//101 52//101 62//101
f 51//102 62//102 61//102
f 52//103 53//103 63//103
f 52//104 63//104 62//104
f 53//105 54//105 64//105
f 53//106 64//106 63//106
f 54//107 55//107 65//107
f 54//108 65//108 64//108
f 55//109 56//109 66//109
f 55//110 66//110 65//110
f 56//111 57//111 67//111
f 56//112 67//112 66//112
f 57//113 58//113 68//113
f 57//114 68//114 67//114
f 58//115 59//115 69//115
f 58//116 69//116 68//116
f 59//117 60//117 70//117
f 59//118 70//118 69//118
f 60//119 51//119 61//119
f 60//120 61//120 70//120
f 61//121 62//121 72//121
f 61//122 72//122 71//122
f 62//123 63//123 73//123
f 62//124 73//124 72//124
f 63//125 64//125 74//125
f 63//126 74//126 73//126
f 64//127 65//127 75//127
f 64//128 75//128 74//128
f 65//129 66//129 76//129
f 65//130 76//130 75//130
f 66//131 67//131 77//131
f 66//132 77//132 76//132
f 67//133 68//133 78//133
f 67//134 78//134 77//134
f 68//135 69//135 79//135
f 68//136 79//136 78//136
f 69//137 70//137 80//137
f 69//138 80//138 79//138
f 70//139 61//139 71//139
f 70//140 71//140 80//140
f 71//141 72//141 82//141
f 71//142 82//142 81//142
f 72//143 73//143 83//143
f 72//144 83//144 82//144
f 73//145 74//145 84//145
f 73//146 84//146 83//146
f 74//147 75//147 85//147
f 74//148 85//148 84//148
f 75//149 76//149 86//149
f 75//150 86//150 85//150
f 76//151 77//151 87//151
f 76//152 87//152 86//152
f 77//153 78//153 88//153
f 77//154 88//154 87//154
f 78//155 79//155 89//155
f 78//156 89//156 88//156
f 79//157 80//157 90//157
f 79//158 90//158 89//158
f 80//159 71//159 81//159
f 80//160 81//160 90//160
f 81//161 82//161 92//161
f 81//162 92//162 91//162
f 82//163 83//163 93//163
f 82//164 93//164 92//164
f 83//165 84//165 94//165
f 83//166 94//166 93//166
f 84//167 85//167 95//167
f 84//168 95//168 94//168
f 85//169 86//169 96//169
f 85//170 96//170 95//170
f 86//171 87//171 97//171
f 86//172 97//172 96//172
f 87//173 88//173 98//173
f 87//174 98//174 97//174
f 88//175 89//175 99//175
f 88//176 99//176 98//176
f 89//177 90//177 100//177
f 89//178 100//178 99//178
f 90//179 81//179 91//179
f 90//180 91//180 100//180
f 91//181 92//181 102//181
f 91//182 102//182 101//182
f 92//183 93//183 103//183
f 92//184 103//184 102//184
f 93//185 94//185 104//185
f 93//186 104//186 103//186
f 94//187 95//187 105//187
f 94//188 105//188 104//188
f 95//189 96//189 106//189
f 95//190 106//190 105//190
f 96//191 97//191 107//191
f 96//192 107//192 106//192
f 97//193 98//193 108//193
f 97//194 108//194 107//194
f 98//195 99//195 109//195
f 98//196 109//196 108//196
f 99//197 100//197 110//197
f 99//198 110//198 109//198
f 100//199 91//199 101//199
f 100//200 101//200 110//200
f 101//201 102//201 112//201
f 101//202 112//202 111//202
f 102//203 103//203 113//203
f 102//204 113//204 112//204
f 103//205 104//205 114//205
f 103//206 114//206 113//206
f 104//207 105//207 115//207
f 104//208 115//208 114//208
f 105//209 106//209 116//209
f 105//210 116//210 115//210
f 106//211 107//211 117//211
f 106//212 117//212 116//212
f 107//213 108//213 118//213
f 107//214 118//214 117//214
f 108//215 109//215 119//215
f 108//216 119//216 118//216
f 109//217 110//217 120//217
f 109//218 120//218 119//218
f 110//219 101//219 111//219
f 110//220 111//220 120//220
f 111//221 112//221 122//221
f 111//222 122//222 121//222
f 112//223 113//223 123//223
f 112//224 123//224 122//224
f 113//225 114//225 124//225
f 113//226 124//226 123//226
f 114//227 115//227 125//227
f 114//228 125//228 124//228
f 115//229 116//229 126//229
f 115//230 126//230 125//230
f 116//231 117//231 127//231
f 116//232 127//232 126//232
f 117//233 118//233 128//233
f 117//234 128//234 127//234
f 118//235 119//235 129//235
f 118//236 129//236 128//236
f 119//237 120//237 130//237
f 119//238 130//238 129//238
f 120//239 111//239 121//239
f 120//240 121//240 130//240
f 121//241 122//241 132//241
f 121//242 132//242 131//242
f 122//243 123//243 133//243
f 122//244 133//244 132//244
f 123//245 124//245 134//245
f 123//246 134//246 133//246
f 124//247 125//247 135//247
f 124//248 135//248 134//248
f 125//249 126//249 136//249
f 125//250 136//250 135//250
f 126//251 127//251 137//251
f 126//252 137//252 136//252
f 127//253 128//253 138//253
f 127//254 138//254 137//254
f 128//255 129//255 139//255
f 128//256 139//256 138//256
f 129//257 130//257 140//257
f 129//258 140//258 139//258
f 130//259 121//259 131//259
f 130//260 131//260 140//260
f 131//261 132//261 142//261
f 131//262 142//262 141//262
f 132//263 133//263 143//263
f 132//264 143//264 142//264
f 133//265 134//265 144//265
f 133//266 144//266 143//266
f 134//267 135//267 145//267
f 134//268 145//268 144//268
f 135//269 136//269 146//269
f 135//270 146//270 145//270
f 136//271 137//271 147//271
f 136//272 147//272 146//272
f 137//273 138//273 148//273
f 137//274 148//274 147//274
f 138//275 139//275 149//275
f 138//276 149//276 148//276
f 139//277 140//277 150//277
f 139//278 150//278 149//278
f 140//279 131//279 141//279
f 140//280 141//280 150//280
f 141//281 142//281 152//281
f 141//282 152//282 151//282
f 142//283 143//283 153//283
f 142//284 153//284 152//284
f 143//285 144//285 154//285
f 143//286 154//286 153//286
f 144//287 145//287 155//287
f 144//288 155//288 154//288
f 145//289 146//289 156//289
f 145//290 156//290 155//290
f 146//291 147//291 157//291
f 146//292 157//292 156//292
f 147//293 148//293 158//293
f 147//294 158//294 157//294
f 148//295 149//295 159//295
f 148//296 159//296 158//296
f 149//297 150//297 160//297
f 149//298 160//298 159//298
f 150//299 141//299 151//299
f 150//300 151//300 160//300
f 151//301 152//301 162//301
f 151//302 162//302 161//302
f 152//303 153//303 163//303
f 152//304 163//304 162//304
f 153//305 154//305 164//305
f 153//306 164//306 163//306
f 154//307 155//307 165//307
f 154//308 165//308 164//308
f 155//309 156//309 166//309
f 155//310 166//310 165//310
f 156//311 157//311 167//311
f 156//312 167//312 166//312
f 157//313 158//313 168//313
f 157//314 168//314 167//314
f 158//315 159//315 169//315
f 158//316 169//316 168//316
f 159//317 160//317 170//317
f 159//318 170//318 169//318
f 160//319 151//319 161//319
f 160//320 161//320 170//320
f 161//321 162//321 172//321
f 161//322 172//322 171//322
f 162//323 163//323 173//323
f 162//324 173//324 172//324
f 163//325 164//325 174//325
f 163//326 174//326 173//326
f 164//327 165//327 175//327
f 164//328 175//328 174//328
f 165//329 166//329 176//329
f 165//330 176//330 175//330
f 166//331 167//331 177//331
f 166//332 177//332 176//332
f 167//333 168//333 178//333
f 167//334 178//334 177//334
f 168//335 169//335 179//335
f 168//336 179//336 178//336
f 169//337 170//337 180//337
f 169//338 180//338 179//338
f 170//339 161//339 171//339
f 170//340 171//340 180//340
f 171//341 172//341 182//341
f 171//342 182//342 181//342
f 172//343 173//343 183//343
f 172//344 183//344 182//344
f 173//345 174//345 184//345
f 173//346 184//346 183//346
f 174//347 175//347 185//347
f 174//348 185//348 184//348
f 175//349 176//349 186//349
f 175//350 186//350 185//350
f 176//351 177//351 187//351
f 176//352 187//352 186//352
f 177//353 178//353 188//353
f 177//354 188//354 187//354
f 178//355 179//355 189//355
f 178//356 189//356 188//356
f 179//357 180//357 190//357
f 179//358 190//358 189//358
f 180//359 171//359 181//359
f 180//360 181//360 190//360
